<?xml version="1.0" standalone="no"?>
<!DOCTYPE svg PUBLIC "-//W3C//DTD SVG 20010904//EN"
 "http://www.w3.org/TR/2001/REC-SVG-20010904/DTD/svg10.dtd">
<svg version="1.0" xmlns="http://www.w3.org/2000/svg"
 width="16.000000pt" height="16.000000pt" viewBox="0 0 16.000000 16.000000"
 preserveAspectRatio="xMidYMid meet">
<metadata>
Created by potrace 1.11, written by Peter Selinger 2001-2013
</metadata>
<g transform="translate(0.000000,16.000000) scale(0.002778,-0.002778)"
fill="#000000" stroke="none">
<path d="M1250 5692 c-43 -37 -175 -416 -204 -585 -3 -15 -7 -35 -10 -45 -2
-9 -7 -39 -11 -67 -3 -27 -8 -57 -10 -65 -15 -54 -26 -378 -13 -386 4 -3 8
-12 8 -20 0 -24 41 -79 82 -108 43 -31 50 -56 16 -56 -33 -1 -108 -42 -129
-70 -28 -39 -30 -73 -5 -117 22 -38 22 -41 6 -64 -65 -92 -33 -199 64 -208 8
-1 16 -18 19 -43 6 -47 33 -76 78 -85 27 -5 24 -8 -59 -73 -138 -107 -271
-242 -420 -427 -38 -47 -188 -275 -216 -327 -14 -27 -30 -54 -34 -60 -34 -46
-138 -307 -168 -421 -22 -83 -25 -96 -30 -130 -2 -16 -6 -36 -9 -44 -13 -33
-20 -135 -20 -276 0 -155 10 -257 31 -327 3 -10 8 -30 10 -45 13 -73 99 -297
135 -353 5 -8 15 -26 21 -40 14 -28 116 -183 145 -218 10 -12 30 -36 45 -53
l27 -31 -67 -67 c-84 -83 -111 -120 -138 -186 -54 -133 -27 -275 77 -399 87
-105 240 -194 379 -222 8 -2 38 -8 65 -13 49 -10 286 -7 335 3 13 3 42 8 65
11 22 3 48 8 57 11 9 3 27 7 40 9 41 8 142 63 178 97 70 64 102 121 135 233
l23 80 58 -4 c161 -10 363 2 484 31 25 6 54 12 65 13 11 2 21 4 23 5 1 2 5 3
10 4 41 10 139 43 187 63 64 28 85 30 385 34 109 1 164 -2 185 -11 17 -7 35
-14 40 -16 6 -1 37 -11 70 -22 34 -11 97 -27 140 -36 44 -9 91 -19 105 -22 14
-3 39 -7 55 -8 107 -13 167 -19 215 -21 30 -2 63 -3 73 -4 12 -1 17 -10 18
-33 0 -40 46 -165 74 -204 39 -54 105 -114 153 -138 45 -23 145 -54 202 -62
14 -2 41 -7 60 -10 69 -11 307 -12 351 -2 69 16 222 69 239 82 8 6 28 18 44
26 17 8 62 47 101 85 72 70 128 163 140 230 6 41 8 125 2 151 -15 65 -89 184
-137 221 -13 10 -3 24 65 94 103 106 115 118 115 124 0 2 20 33 45 69 47 67
125 215 151 289 24 64 64 198 70 232 3 17 9 48 14 70 19 90 25 158 25 305 0
161 -5 213 -31 315 -9 33 -17 68 -19 77 -21 105 -134 357 -233 517 -181 295
-476 618 -756 830 -89 67 -88 64 -63 93 98 114 111 163 67 250 -14 28 -17 44
-11 61 9 24 8 90 -3 124 -9 27 -64 47 -128 46 -32 -1 -61 3 -64 9 -4 5 -8 42
-10 82 -13 287 -15 320 -30 466 -9 81 -19 149 -29 197 -3 13 -6 26 -6 30 0 5
-6 22 -13 38 -7 17 -14 33 -14 38 -1 4 -2 8 -3 10 0 1 -2 9 -4 18 -7 40 -84
193 -127 257 -17 24 -59 72 -94 107 -91 88 -144 96 -192 28 -20 -29 -182 -404
-182 -423 0 -5 -4 -10 -10 -10 -5 0 -10 -7 -10 -15 0 -8 -9 -34 -19 -58 -54
-119 -71 -159 -71 -168 0 -13 1 -13 -155 41 -66 23 -127 44 -135 45 -8 2 -51
13 -95 24 -149 37 -268 53 -415 53 -82 0 -209 -9 -231 -16 -8 -3 -30 -7 -49
-10 -74 -12 -98 -18 -212 -56 -113 -38 -247 -96 -258 -111 -9 -13 -22 1 -105
106 -140 177 -225 277 -335 395 -160 171 -178 192 -192 225 -19 49 -56 64 -88
37z m7 -1868 c-3 -3 -12 -4 -19 -1 -8 3 -5 6 6 6 11 1 17 -2 13 -5z"/>
</g>
</svg>
