<?xml version="1.0" encoding="utf-8"?>
<!-- Generator: Adobe Illustrator 21.0.0, SVG Export Plug-In . SVG Version: 6.00 Build 0)  -->
<svg version="1.1" id="Layer_1" xmlns="http://www.w3.org/2000/svg" xmlns:xlink="http://www.w3.org/1999/xlink" x="0px" y="0px"
	 viewBox="0 0 269.9 353.9" style="enable-background:new 0 0 269.9 353.9;" xml:space="preserve">
<style type="text/css">
	.st0{fill:#2A2822;stroke:#000000;stroke-width:5.1731;stroke-linecap:round;stroke-linejoin:round;stroke-miterlimit:10;}
	.st1{fill:#FFFFFF;}
	.st2{fill:#2A2822;}
	.st3{fill:none;stroke:#000000;stroke-width:5.6756;stroke-linecap:round;stroke-linejoin:round;stroke-miterlimit:10;}
	.st4{fill:none;stroke:#000000;stroke-width:5.6756;stroke-linecap:round;stroke-miterlimit:10;}
	.st5{fill:#FFFFFF;stroke:#000000;stroke-width:5.6756;stroke-linecap:round;stroke-miterlimit:10;}
	.st6{fill:none;stroke:#000000;stroke-width:5.6756;stroke-miterlimit:10;}
	.st7{fill:#D3912F;}
	.st8{fill:none;stroke:#000000;stroke-width:3.7838;stroke-linecap:round;stroke-linejoin:round;stroke-miterlimit:10;}
</style>
<path class="st0" d="M57,174.2c-1,1.1-3,0.3-3.5-1.1c-0.7-1.7,1.4-5.5-1.7-5c-0.8,0.1-1.6,0.2-2.4-0.1c-4.5-1.8,0.4-9.4,3.9-9.5
	c-1.2-0.2-2.5-0.5-3.5-1.3s-1.7-2-1.6-3.2c0.2-2.1,3.3-3.2,5.1-3.5c0.5-0.1,1.1-0.1,1.6-0.3c2.5-0.7,3-3.8,1.3-5.6
	c-1.2-1.2-2.9-1.9-4.1-3.2c-1.9-2-2.1-5.1-2-7.9c0.3-17.4,4.4-34.8,11.8-50.5c-1,2,13.1,15.6,14.6,17.4c6.3,7.4,12.5,15.1,18.4,22.8
	c6-4.1,15.3-7.5,22.4-9.1c19.3-4.4,37.6-0.4,55.5,7c0.6,0.3,1.3,0.5,1.9,0.8c3.5-8.1,6.9-16.2,10.4-24.2c1.5-3.6,2.9-7.4,4.7-10.9
	c1.4-2.6,2-3.2,4.5-1.1c7.2,5.9,11.4,14.9,13.7,23.8c0.4,1.5,0.7,2.9,0.9,4.4c1.4,7.7,1.7,15.6,2.2,23.4c0.2,3.3-0.4,9,1.1,12
	c1.7,3.4,5,0.3,8.5,1.7c0.4,0.1,0.8,0.3,1,0.7c0.2,0.3,0.2,0.7,0.2,1.1c0,0.7,0,1.4,0,2.1c0,0.4,0,0.9-0.2,1.2s-0.5,0.5-0.9,0.7
	c-1.1,0.6-2.1,1.3-3.2,1.9c1.7-0.2,3.5,0.5,4.6,1.8s1.4,3.2,0.9,4.8c-1.2,3.5-5.1,5.8-6.7,9.2"/>
<path class="st1" d="M24.4,308.3c0,0-9.4-8.7-15.8-24.1C0,263.5-3.1,230.7,29.5,190.5c56.8-70.1,161.3-36.9,161.3-36.9
	s68.1,31.2,76.3,97.3c0,0,2,35.3-22,57.3c-24.1,22-70.7,24.1-98.3,12.3l-24.6,0.5C122.2,321.1,81.2,344.6,24.4,308.3z"/>
<g>
	<path class="st2" d="M112.4,206.9c0,0-0.4-0.1-1.2-0.4c-9.6-2.7-72.8-0.7-58.9,93.1l-27.9,8.6l-15.8-24l0.9-39.8l38.1-62.8
		l103.7-2.7l82.4,12.8l27.7,65l4.1,12.7l-4.1,14.4l-21.1,28.6l-11.8-9.4l-19-3.3c0,0,25.5-101.9-64.1-94"/>
	<polyline class="st2" points="112,206.7 120.3,218.3 123.3,208.1 135,225.4 149.8,205.3 153,213.6 165.1,205.3 172,197.5 
		114.9,197.5 	"/>
</g>
<path class="st2" d="M8.9,281.8c-1.1-2,0.6-7.9,0.9-10c1.2-8.2,3.2-16.4,6.2-24.2c8.9-23.5,25.9-40.9,48.9-50.9
	c12.9-5.6,27.6-6.9,41.4-4.1c2,0.4,4.1,0.9,5.8,2c3.7,2.2,5.9,6.2,7.9,10.1c0.8-3.8,1.5-7.5,2.3-11.3c-0.7,2.6,10.6,15,12.6,17.7
	l15.2-18.8l3.5,9.7l11.8-8.6c0,0,77-5.7,98.1,76.9c0,0,18.9-60.3-59.7-108.6c-26.7-16.4-50.9-16.2-72.5-16
	c-58.2,0.4-95.7,38.4-95.7,38.4S-15.3,234.9,8.9,281.8z"/>
<path class="st3" d="M24.4,308.3c0,0-9.4-8.7-15.8-24.1C0,263.5-3.1,230.7,29.5,190.5c19.2-23.7,47-37.3,76.8-42
	c30.6-4.9,63.8-4.1,92,10c13.6,6.8,24.9,16.2,35.4,27.1c16.8,17.3,31.9,40.6,33.4,65.5c0,0,2,35.3-22,57.3
	c-24.1,22-70.7,24.1-98.3,12.3l-24.6,0.5C122.2,321.1,81.2,344.6,24.4,308.3z"/>
<path class="st4" d="M107.7,307.7c0,0,21.2,25.7,56.3,2.4"/>
<g>
	<path class="st5" d="M52.3,299.7c-7,0.1-12.7-0.4-19,3.3c-4.4,2.5-8.1,6-11.8,9.4c-2.7,2.5-5.4,5.1-7.3,8.2c-3.6,6-2.4,13,1.8,18.4
		c7,9,18.8,12.6,29.8,12c6.5-0.4,15.1-1.1,20.7-4.6c5.8-3.6,8.5-10.7,9-17.5s-0.9-13.5-1.5-20.3"/>
	<circle cx="53.4" cy="334.7" r="6.2"/>
	<ellipse transform="matrix(0.3296 -0.9441 0.9441 0.3296 -289.0551 257.5942)" cx="36.9" cy="332.3" rx="6.2" ry="5"/>
	<ellipse transform="matrix(0.7071 -0.7071 0.7071 0.7071 -222.3688 113.3334)" cx="25.6" cy="325.1" rx="5.8" ry="3.9"/>
	<g>
		<ellipse transform="matrix(0.4272 -0.9042 0.9042 0.4272 -255.2399 227.3039)" cx="51.8" cy="315.1" rx="5.2" ry="5.8"/>
		<ellipse transform="matrix(0.4272 -0.9042 0.9042 0.4272 -256.6672 216.5618)" cx="42.6" cy="310.8" rx="5.2" ry="5.8"/>
		<path d="M38.5,315.8c0.2-3,0.2-6.9,8.7-2.9c6,2.8,5.9,5.5,3.7,7.6c-2.9,2.7-4.9,3.5-8.2,2C39.3,320.9,38.3,319.1,38.5,315.8z"/>
		<ellipse transform="matrix(0.4272 -0.9042 0.9042 0.4272 -254.452 221.5606)" cx="47.6" cy="311.6" rx="2.3" ry="8.9"/>
	</g>
</g>
<path class="st2" d="M119.4,183.8c0,0,25.9-63.1-22.6-113.6l21.6-3c0,0,3.4-23.1-34.6-63.9c0,0,59.8-7.5,79.2,42.8l4.1-12.7
	c0,0,60.8,31.1-12,150.4"/>
<g>
	<path class="st5" d="M209.5,299.7c7,0.1,12.7-0.4,19,3.3c4.4,2.5,8.1,6,11.8,9.4c2.7,2.5,5.4,5.1,7.3,8.2c3.6,6,2.4,13-1.8,18.4
		c-7,9-18.8,12.6-29.8,12c-6.5-0.4-15.1-1.1-20.7-4.6c-5.8-3.6-8.5-10.7-9-17.5s0.9-13.5,1.5-20.3"/>
	<circle cx="208.4" cy="334.7" r="6.2"/>
	<ellipse transform="matrix(0.9441 -0.3296 0.3296 0.9441 -96.9938 92.7041)" cx="224.9" cy="332.4" rx="5" ry="6.2"/>
	<ellipse transform="matrix(0.7071 -0.7071 0.7071 0.7071 -160.703 262.2415)" cx="236.2" cy="325.1" rx="3.9" ry="5.8"/>
	<g>
		<ellipse transform="matrix(0.9042 -0.4272 0.4272 0.9042 -114.4805 119.911)" cx="210" cy="315.1" rx="5.8" ry="5.2"/>
		<ellipse transform="matrix(0.9042 -0.4272 0.4272 0.9042 -111.7763 123.3839)" cx="219.1" cy="310.8" rx="5.8" ry="5.2"/>
		<path d="M223.3,315.8c-0.2-3-0.2-6.9-8.7-2.9c-6,2.8-5.9,5.5-3.7,7.6c2.9,2.7,4.9,3.5,8.2,2C222.5,320.9,223.5,319.1,223.3,315.8z
			"/>
		<ellipse transform="matrix(0.9042 -0.4272 0.4272 0.9042 -112.587 121.3713)" cx="214.2" cy="311.6" rx="8.9" ry="2.3"/>
	</g>
</g>
<path class="st1" d="M110.2,87.1c0,0,10.1,6.8,15.5,12.6c0,0,10.8-21.8,13.7-29.7c0,0,13.7,9.1,15,23.3c0,0,18.7-8.7,17.9-27.4
	c0,0,18,14.1,17.3,33.8c0,0,3.7-34.4-5.6-47.4s-17-19-17-19l-3.1,16.4c0,0-14.4-50.9-80.2-46.4c0,0,36,31.5,34.6,63.9l-19,2.7"/>
<path class="st6" d="M119.4,183.8c0,0,25.9-63.1-22.6-113.6l21.6-3c0,0,3.4-23.1-34.6-63.9c0,0,59.8-7.5,79.2,42.8l4.1-12.7
	c0,0,60.8,31.1-12,150.4"/>
<path class="st7" d="M94.9,195"/>
<g>
	<line class="st8" x1="139.6" y1="206.3" x2="130.4" y2="216"/>
	<line class="st8" x1="130.4" y1="206.3" x2="139.6" y2="216"/>
</g>
</svg>
