<?xml version="1.0" encoding="utf-8"?>
<!-- Generator: Adobe Illustrator 21.0.0, SVG Export Plug-In . SVG Version: 6.00 Build 0)  -->
<!DOCTYPE svg PUBLIC "-//W3C//DTD SVG 1.1//EN" "http://www.w3.org/Graphics/SVG/1.1/DTD/svg11.dtd">
<svg version="1.1" id="Layer_1" xmlns="http://www.w3.org/2000/svg" xmlns:xlink="http://www.w3.org/1999/xlink" x="0px" y="0px"
	 viewBox="0 0 269.9 353.9" style="enable-background:new 0 0 269.9 353.9;" xml:space="preserve">
<style type="text/css">
	.st0{fill:#2A2822;stroke:#000000;stroke-width:5.1731;stroke-linecap:round;stroke-linejoin:round;stroke-miterlimit:10;}
	.st1{fill:#FFFFFF;
    animation: swing .3s infinite ease-in-out;}
    
	.st2{fill:#2A2822;animation: swing .3s infinite ease-in-out;}
    
	.st3{fill:none;stroke:#000000;stroke-width:5.6756;stroke-linecap:round;stroke-linejoin:round;stroke-miterlimit:10;
    animation: swing .3s infinite ease-in-out;}
	.st4{fill:none;stroke:#000000;stroke-width:5.6756;stroke-linecap:round;stroke-miterlimit:10;
    animation: swing .3s infinite ease-in-out;}
	.st5{fill:none;stroke:#000000;stroke-width:5.6756;stroke-miterlimit:10;
    animation: swing .3s infinite ease-in-out;}
	.st6{fill:#D3912F;}
	.st7{fill:none;stroke:#000000;stroke-width:3.7838;stroke-linecap:round;stroke-linejoin:round;stroke-miterlimit:10;
    animation: swing .3s infinite ease-in-out;}
    
    #leftFoot {
        animation: swing2 5s infinite ease-in-out;
    }
    
    #rightFoot{
    animation: antiswing2 5s infinite ease-in-out;
    }
    
    @keyframes antiswing2 {
        0%, 100% { transform: rotate(.3deg); }
        50% { transform: rotate(-.3deg); }
    }
    
    @keyframes swing2 {
        0%, 100% { transform: rotate(-.3deg); }
        50% { transform: rotate(.3deg); }
    }
    
    @keyframes swing {
        0%, 100% { transform: rotate(-.15deg); }
        50% { transform: rotate(.15deg); }
    }
</style>
<path class="st0" d="M57,174.2c-1,1.1-3,0.3-3.5-1.1c-0.7-1.7,1.4-5.5-1.7-5c-0.8,0.1-1.6,0.2-2.4-0.1c-4.5-1.8,0.4-9.4,3.9-9.5
	c-1.2-0.2-2.5-0.5-3.5-1.3s-1.7-2-1.6-3.2c0.2-2.1,3.3-3.2,5.1-3.5c0.5-0.1,1.1-0.1,1.6-0.3c2.5-0.7,3-3.8,1.3-5.6
	c-1.2-1.2-2.9-1.9-4.1-3.2c-1.9-2-2.1-5.1-2-7.9c0.3-17.4,4.4-34.8,11.8-50.5c-1,2,13.1,15.6,14.6,17.4c6.3,7.4,12.5,15.1,18.4,22.8
	c6-4.1,15.3-7.5,22.4-9.1c19.3-4.4,37.6-0.4,55.5,7c0.6,0.3,1.3,0.5,1.9,0.8c3.5-8.1,6.9-16.2,10.4-24.2c1.5-3.6,2.9-7.4,4.7-10.9
	c1.4-2.6,2-3.2,4.5-1.1c7.2,5.9,11.4,14.9,13.7,23.8c0.4,1.5,0.7,2.9,0.9,4.4c1.4,7.7,1.7,15.6,2.2,23.4c0.2,3.3-0.4,9,1.1,12
	c1.7,3.4,5,0.3,8.5,1.7c0.4,0.1,0.8,0.3,1,0.7c0.2,0.3,0.2,0.7,0.2,1.1c0,0.7,0,1.4,0,2.1c0,0.4,0,0.9-0.2,1.2s-0.5,0.5-0.9,0.7
	c-1.1,0.6-2.1,1.3-3.2,1.9c1.7-0.2,3.5,0.5,4.6,1.8s1.4,3.2,0.9,4.8c-1.2,3.5-5.1,5.8-6.7,9.2"/>
<path class="st1" d="M24.4,308.3c0,0-9.4-8.7-15.8-24.1C0,263.5-3.1,230.7,29.5,190.5c56.8-70.1,161.3-36.9,161.3-36.9
	s68.1,31.2,76.3,97.3c0,0,2,35.3-22,57.3c-24.1,22-70.7,24.1-98.3,12.3l-24.6,0.5C122.2,321.1,81.2,344.6,24.4,308.3z"/>
<g>
	<path class="st2" d="M112.4,206.9c0,0-0.4-0.1-1.2-0.4c-9.6-2.7-72.8-0.7-58.9,93.1l-27.9,8.6l-15.8-24l0.9-39.8l38.1-62.8
		l103.7-2.7l82.4,12.8l27.7,65l4.1,12.7l-4.1,14.4l-21.1,28.6l-11.8-9.4l-19-3.3c0,0,25.5-101.9-64.1-94"/>
	<polyline class="st2" points="112,206.7 120.3,218.3 123.3,208.1 135,225.4 149.8,205.3 153,213.6 165.1,205.3 172,197.5 
		114.9,197.5 	"/>
</g>
<path class="st2" d="M8.9,281.8c-1.1-2,0.6-7.9,0.9-10c1.2-8.2,3.2-16.4,6.2-24.2c8.9-23.5,25.9-40.9,48.9-50.9
	c12.9-5.6,27.6-6.9,41.4-4.1c2,0.4,4.1,0.9,5.8,2c3.7,2.2,5.9,6.2,7.9,10.1c0.8-3.8,1.5-7.5,2.3-11.3c-0.7,2.6,10.6,15,12.6,17.7
	l15.2-18.8l3.5,9.7l11.8-8.6c0,0,77-5.7,98.1,76.9c0,0,18.9-60.3-59.7-108.6c-26.7-16.4-50.9-16.2-72.5-16
	c-58.2,0.4-95.7,38.4-95.7,38.4S-15.3,234.9,8.9,281.8z"/>
<path class="st3" d="M24.4,308.3c0,0-9.4-8.7-15.8-24.1C0,263.5-3.1,230.7,29.5,190.5c19.2-23.7,47-37.3,76.8-42
	c30.6-4.9,63.8-4.1,92,10c13.6,6.8,24.9,16.2,35.4,27.1c16.8,17.3,31.9,40.6,33.4,65.5c0,0,2,35.3-22,57.3
	c-24.1,22-70.7,24.1-98.3,12.3l-24.6,0.5C122.2,321.1,81.2,344.6,24.4,308.3z"/>
<path class="st4" d="M107.7,307.7c0,0,21.2,25.7,56.3,2.4"/>
<g id="leftFoot">
	<path class="st1" d="M74,308.6l-21.7-8.9c-7,0.1-12.7-0.4-19,3.3c-4.4,2.5-8.1,6-11.8,9.4c-2.7,2.5-5.4,5.1-7.3,8.2
		c-3.6,6-2.4,13,1.8,18.4c7,9,18.8,12.6,29.8,12c6.5-0.4,15.1-1.1,20.7-4.6c5.8-3.6,8.5-10.7,9-17.5S74.6,315.4,74,308.6z"/>
	<g>
		<path d="M77.5,314.3c-0.2-2-0.5-4-0.7-6c-0.1-1.6-1.5-2.7-3.1-2.6c-1.6,0.1-2.7,1.5-2.6,3.1c0.2,2.1,0.4,4.2,0.7,6.2
			c0.6,4.7,1.1,9.2,0.8,13.7c-0.2,3.3-1.5,11.5-7.7,15.3c-5.3,3.3-14.4,3.9-19.4,4.2c-11.4,0.6-21.6-3.5-27.4-10.9
			c-3.8-4.9-4.4-10.6-1.6-15.2c1.7-2.8,4.2-5.2,6.8-7.6l0.6-0.6c3.5-3.2,6.8-6.2,10.7-8.5c4.9-2.9,9.3-2.9,15-2.9c0.8,0,1.7,0,2.6,0
			c1.6,0,2.8-1.3,2.8-2.9c0-1.6-1.3-2.8-2.8-2.8c0,0,0,0,0,0c-0.9,0-1.7,0-2.5,0c-6,0-11.7,0-17.8,3.7c-4.4,2.5-8.1,5.9-11.7,9.2
			l-0.6,0.6c-2.9,2.7-5.7,5.4-7.8,8.8c-4,6.6-3.2,14.9,2,21.6c6.5,8.3,17.4,13.2,29.7,13.2c0.8,0,1.7,0,2.6-0.1c7.5-0.5,16-1.3,22-5
			c5.9-3.7,9.7-10.9,10.3-19.7C78.7,324.1,78.1,319.1,77.5,314.3z"/>
		<circle cx="53.4" cy="334.7" r="6.2"/>
		<ellipse transform="matrix(0.3296 -0.9441 0.9441 0.3296 -289.0228 257.5335)" cx="36.8" cy="332.3" rx="6.2" ry="5"/>
		<ellipse transform="matrix(0.7071 -0.7071 0.7071 0.7071 -222.386 113.3323)" cx="25.6" cy="325.1" rx="5.8" ry="3.9"/>
		<path d="M49.6,310c-0.3-0.2-0.6-0.3-1-0.5c-0.3-0.1-0.5-0.2-0.8-0.4c-0.6-1.3-1.6-2.4-3-3.1c-2.9-1.4-6.2-0.4-7.5,2.2
			c-0.9,2-0.3,4.4,1.3,6c-0.1,0.5-0.1,1-0.1,1.5c-0.2,3.3,0.8,5.1,4.2,6.7c3.3,1.5,5.3,0.7,8.2-2c0.1-0.1,0.2-0.2,0.2-0.2
			c2.5,0.5,4.9-0.6,5.9-2.7c1.2-2.6-0.1-5.8-3-7.2C52.5,309.7,51,309.6,49.6,310z"/>
	</g>
</g>
<path class="st2" d="M119.4,183.8c0,0,25.9-63.1-22.6-113.6l21.6-3c0,0,3.4-23.1-34.6-63.9c0,0,59.8-7.5,79.2,42.8l4.1-12.7
	c0,0,60.8,31.1-12,150.4"/>
<g id="rightFoot">
	<path class="st1" d="M247.6,320.6c-1.9-3.1-4.6-5.7-7.3-8.2c-3.7-3.4-7.4-6.9-11.8-9.4c-6.3-3.7-12-3.2-19-3.3l-21.7,8.9
		c-0.6,6.8-2,13.5-1.5,20.3s3.2,13.9,9,17.5c5.6,3.5,14.2,4.2,20.7,4.6c11,0.6,22.8-3,29.8-12C250,333.6,251.2,326.6,247.6,320.6z"
		/>
	<g>
		<path d="M250,319.1c-2.1-3.4-4.9-6.1-7.8-8.8l-0.6-0.6c-3.6-3.3-7.3-6.7-11.6-9.2c-6.2-3.6-11.9-3.6-17.9-3.7c-0.8,0-1.7,0-2.5,0
			c0,0,0,0,0,0c-1.5,0-2.8,1.2-2.8,2.8c0,1.6,1.2,2.9,2.8,2.9c0.9,0,1.7,0,2.6,0c5.7,0,10.2,0,15.1,2.9c3.9,2.2,7.2,5.2,10.6,8.4
			l0.6,0.6c2.6,2.4,5.1,4.8,6.8,7.6c2.8,4.6,2.2,10.3-1.6,15.2c-5.8,7.4-16,11.5-27.4,10.9c-4.9-0.3-14.1-0.9-19.4-4.2
			c-6.2-3.8-7.4-12-7.7-15.3c-0.3-4.5,0.2-9,0.8-13.7c0.2-2,0.5-4.1,0.7-6.2c0.1-1.6-1-2.9-2.6-3.1c-1.6-0.1-2.9,1-3.1,2.6
			c-0.2,2-0.4,4-0.7,6c-0.6,4.8-1.2,9.7-0.8,14.8c0.7,8.8,4.4,16,10.3,19.7c6,3.8,14.5,4.6,22,5c0.9,0,1.7,0.1,2.6,0.1
			c12.2,0,23.2-4.8,29.6-13.2C253.2,334,254,325.8,250,319.1z"/>
		<circle cx="208.4" cy="334.7" r="6.2"/>
		<ellipse transform="matrix(0.9441 -0.3296 0.3296 0.9441 -96.9931 92.7019)" cx="224.9" cy="332.4" rx="5" ry="6.2"/>
		<ellipse transform="matrix(0.7071 -0.7071 0.7071 0.7071 -160.7032 262.2335)" cx="236.2" cy="325.1" rx="3.9" ry="5.8"/>
		<path d="M210.7,320.3c0.1,0.1,0.1,0.1,0.2,0.2c2.9,2.7,4.9,3.5,8.2,2c3.4-1.6,4.4-3.4,4.2-6.7c0-0.5-0.1-1.1-0.1-1.6
			c1.6-1.6,2.1-3.9,1.2-5.9c-1.2-2.6-4.6-3.6-7.5-2.2c-1.5,0.7-2.5,1.8-3.1,3.2c-0.2,0.1-0.4,0.2-0.6,0.3c-0.4,0.2-0.7,0.3-1,0.5
			c-1.4-0.4-2.9-0.3-4.4,0.4c-2.9,1.4-4.2,4.6-3,7.2C205.8,319.7,208.2,320.8,210.7,320.3z"/>
	</g>
</g>
<path class="st1" d="M110.2,87.1c0,0,10.1,6.8,15.5,12.6c0,0,10.8-21.8,13.7-29.7c0,0,13.7,9.1,15,23.3c0,0,18.7-8.7,17.9-27.4
	c0,0,18,14.1,17.3,33.8c0,0,3.7-34.4-5.6-47.4s-17-19-17-19l-3.1,16.4c0,0-14.4-50.9-80.2-46.4c0,0,36,31.5,34.6,63.9l-19,2.7"/>
<path class="st5" d="M119.4,183.8c0,0,25.9-63.1-22.6-113.6l21.6-3c0,0,3.4-23.1-34.6-63.9c0,0,59.8-7.5,79.2,42.8l4.1-12.7
	c0,0,60.8,31.1-12,150.4"/>
<path class="st6" d="M94.9,195"/>
<g>
	<line class="st7" x1="139.6" y1="206.3" x2="130.4" y2="216"/>
	<line class="st7" x1="130.4" y1="206.3" x2="139.6" y2="216"/>
</g>
</svg>
