<?xml version="1.0" encoding="utf-8"?>
<!-- Generator: Adobe Illustrator 21.0.0, SVG Export Plug-In . SVG Version: 6.00 Build 0)  -->
<!DOCTYPE svg PUBLIC "-//W3C//DTD SVG 1.1//EN" "http://www.w3.org/Graphics/SVG/1.1/DTD/svg11.dtd">
<svg version="1.1" id="Layer_1" xmlns="http://www.w3.org/2000/svg" xmlns:xlink="http://www.w3.org/1999/xlink" x="0px" y="0px"
	 viewBox="0 0 65.2 64.1" style="enable-background:new 0 0 65.2 64.1;" xml:space="preserve">
<style type="text/css">
	.st0{fill:#D3912F;stroke:#000000;stroke-width:4.9104;stroke-linecap:round;stroke-linejoin:round;stroke-miterlimit:10;}
	.st1{fill:#FFFFFF;}
	.st2{fill:none;stroke:#000000;stroke-width:4.9104;stroke-linecap:round;stroke-linejoin:round;stroke-miterlimit:10;}
</style>
<path class="st0" d="M62.7,30c0,0-12.9-8.6-16.3-18.8C43,1,40.8,23.8,40.8,23.8s-9.9-11.6-9.5-19.9c0.1-3.1-3-0.8-6.5,3.6
	c-6,7.5-6.7,16.1-8,25.3c0,0-9.3-0.5-12.7-1.9S1,49.1,18.3,61.7"/>
<path class="st1" d="M19.1,20c0,0,9.7,23.5,20.7,25L19.1,61.7L5.9,47.2L2.5,33.4l14.4-0.6L16,23.2"/>
<path class="st2" d="M62.7,30c0,0-12.9-8.6-16.3-18.8C43,1,40.8,23.8,40.8,23.8s-9.9-11.6-9.5-19.9c0.1-3.1-3-0.8-6.5,3.6
	c-6,7.5-6.7,16.1-8,25.3c0,0-9.3-0.5-12.7-1.9S1,49.1,18.3,61.7"/>
</svg>
