<?xml version="1.0" encoding="utf-8"?>
<!-- Generator: Adobe Illustrator 21.0.0, SVG Export Plug-In . SVG Version: 6.00 Build 0)  -->
<!DOCTYPE svg PUBLIC "-//W3C//DTD SVG 1.1//EN" "http://www.w3.org/Graphics/SVG/1.1/DTD/svg11.dtd">
<svg version="1.1" id="Layer_1" xmlns="http://www.w3.org/2000/svg" xmlns:xlink="http://www.w3.org/1999/xlink" x="0px" y="0px"
	 viewBox="0 0 269.9 354.2" style="enable-background:new 0 0 269.9 354.2;" xml:space="preserve">
<style type="text/css">
	.st0{fill:#D3912F;stroke:#000000;stroke-width:5.1731;stroke-linecap:round;stroke-linejoin:round;stroke-miterlimit:10;}
	.st1{fill:#D3912F;stroke:#D3912F;stroke-width:7.8974;stroke-linecap:round;stroke-linejoin:round;stroke-miterlimit:10;}
	.st2{fill:#FFFFFF;}
	.st3{fill:none;stroke:#000000;stroke-width:5.1731;stroke-linecap:round;stroke-linejoin:round;stroke-miterlimit:10;}
	.st4{fill:#D3912F;}
	.st5{fill:none;stroke:#000000;stroke-width:5.6756;stroke-linecap:round;stroke-linejoin:round;stroke-miterlimit:10;}
	.st6{fill:none;stroke:#000000;stroke-width:5.6756;stroke-linecap:round;stroke-miterlimit:10;}
	.st7{fill:#FFFFFF;stroke:#000000;stroke-width:5.6756;stroke-linecap:round;stroke-miterlimit:10;}
</style>
<path class="st0" d="M64,172.1c-1,1.1-3,0.3-3.5-1.1c-0.7-1.7,1.4-5.5-1.7-5c-0.8,0.1-1.6,0.2-2.4-0.1c-4.5-1.8,0.4-9.4,3.9-9.5
	c-1.2-0.2-2.5-0.5-3.5-1.3s-1.7-2-1.6-3.2c0.2-2.1,3.3-3.2,5.1-3.5c0.5-0.1,1.1-0.1,1.6-0.3c2.5-0.7,3-3.8,1.3-5.6
	c-1.2-1.1-2.9-1.8-4.1-3.1c-1.9-2-2.1-5.1-2-7.9c0.3-17.4,4.4-34.8,11.8-50.5c-1,2,13.1,15.6,14.6,17.4c6.4,7.4,12.5,15,18.5,22.7
	c6-4.1,15.3-7.5,22.4-9.1c19.3-4.4,37.6-0.4,55.5,7c0.6,0.3,1.3,0.5,1.9,0.8c3.5-8.1,6.9-16.2,10.4-24.2c1.5-3.6,2.9-7.4,4.7-10.9
	c1.4-2.6,2-3.2,4.5-1.1c7.2,5.9,11.4,14.9,13.7,23.8c0.4,1.5,0.7,2.9,0.9,4.4c1.4,7.7,1.7,15.6,2.2,23.4c0.2,3.3-0.4,9,1.1,12
	c1.7,3.4,5,0.3,8.5,1.7c0.4,0.1,0.8,0.3,1,0.7c0.2,0.3,0.2,0.7,0.2,1.1c0,0.7,0,1.4,0,2.1c0,0.4,0,0.9-0.2,1.2s-0.5,0.5-0.9,0.7
	c-1.1,0.6-2.1,1.3-3.2,1.9c1.7-0.2,3.5,0.5,4.6,1.8s1.4,3.2,0.9,4.8c-1.2,3.5-5.1,5.8-6.7,9.2"/>
<path class="st1" d="M158.4,151.8c6.1-5,12.1-9.9,18.2-14.9c-6-0.1-12-0.2-17.9-0.4c4.5-5.5,9-11.1,13.5-16.6
	c-0.6,0.7-10.3-1.6-11.5-1.7c-4.4-0.7-8.8-1.3-13.2-2c-5.3-0.8-10.4-2-15.7-1.2c-8.1,1.1-15.9,4.6-22.1,9.9c-1.2,1-2.3,2-3.1,3.3
	c-0.6,0.9-1,2-1.4,3c-2.5,6.3-5.1,12.7-7.6,19"/>
<polyline class="st2" points="145.2,111.5 151.5,123.1 145.2,120.4 148.3,130.2 135.9,126.5 130,128 130,111.5 "/>
<path class="st3" d="M64,172.1c-1,1.1-3,0.3-3.5-1.1c-0.7-1.7,1.4-5.5-1.7-5c-0.8,0.1-1.6,0.2-2.4-0.1c-4.5-1.8,0.4-9.4,3.9-9.5
	c-1.2-0.2-2.5-0.5-3.5-1.3s-1.7-2-1.6-3.2c0.2-2.1,3.3-3.2,5.1-3.5c0.5-0.1,1.1-0.1,1.6-0.3c2.5-0.7,3-3.8,1.3-5.6
	c-1.2-1.1-2.9-1.8-4.1-3.1c-1.9-2-2.1-5.1-2-7.9c0.3-17.4,4.4-34.8,11.8-50.5c-1,2,13.1,15.6,14.6,17.4c6.4,7.4,12.5,15,18.5,22.7
	c6-4.1,15.3-7.5,22.4-9.1c19.3-4.4,37.6-0.4,55.5,7c0.6,0.3,1.3,0.5,1.9,0.8c3.5-8.1,6.9-16.2,10.4-24.2c1.5-3.6,2.9-7.4,4.7-10.9
	c1.4-2.6,2-3.2,4.5-1.1c7.2,5.9,11.4,14.9,13.7,23.8c0.4,1.5,0.7,2.9,0.9,4.4c1.4,7.7,1.7,15.6,2.2,23.4c0.2,3.3-0.4,9,1.1,12
	c1.7,3.4,5,0.3,8.5,1.7c0.4,0.1,0.8,0.3,1,0.7c0.2,0.3,0.2,0.7,0.2,1.1c0,0.7,0,1.4,0,2.1c0,0.4,0,0.9-0.2,1.2s-0.5,0.5-0.9,0.7
	c-1.1,0.6-2.1,1.3-3.2,1.9c1.7-0.2,3.5,0.5,4.6,1.8s1.4,3.2,0.9,4.8c-1.2,3.5-5.1,5.8-6.7,9.2"/>
<path class="st2" d="M24.4,308.2c0,0-9.4-8.7-15.8-24.1C0,263.5-3.1,230.7,29.5,190.5c56.8-70.1,161.3-36.9,161.3-36.9
	s68.1,31.2,76.3,97.3c0,0,2,35.3-22,57.3c-24.1,22-70.7,24.1-98.3,12.3l-24.6,0.5C122.2,321,81.2,344.6,24.4,308.2z"/>
<g>
	<path class="st4" d="M112.4,206.8c0,0-0.4-0.1-1.2-0.4c-9.6-2.7-72.8-0.7-58.9,93.1l-27.9,8.6l-15.8-24l0.8-39.7l38.1-62.8
		l103.7-2.7l82.4,12.8l27.7,65l2.6,12l-2.6,15.1l-21,28.6l-11.8-9.4l-19-3.3c0,0,25.5-101.9-64.1-94"/>
	<polyline class="st4" points="112,206.7 120.3,218.2 123.3,208.1 135,225.4 149.8,205.3 153,213.5 165.1,205.3 172,197.4 
		114.9,197.4 	"/>
</g>
<path class="st4" d="M8.9,281.8c-1.1-2,0.6-7.9,0.9-10c1.2-8.2,3.2-16.4,6.2-24.2c8.9-23.5,25.9-40.9,48.9-50.9
	c12.9-5.6,27.6-6.9,41.4-4.1c2,0.4,4.1,0.9,5.8,2c3.7,2.2,5.9,6.2,7.9,10.1c0.8-3.8,1.5-7.5,2.3-11.3c-0.7,2.6,10.6,15,12.6,17.7
	l15.2-18.8l3.5,9.7l11.8-8.6c0,0,77-5.7,98.1,76.9c0,0,18.9-60.3-59.7-108.6c-26.7-16.4-50.9-16.2-72.5-16
	c-58.2,0.4-95.7,38.4-95.7,38.4S-15.3,234.9,8.9,281.8z"/>
<path class="st5" d="M24.4,308.2c0,0-9.4-8.7-15.8-24.1C0,263.5-3.1,230.7,29.5,190.5c19.2-23.7,47-37.3,76.8-42
	c30.6-4.9,63.8-4.1,92,10c13.6,6.8,24.9,16.2,35.4,27.1c16.8,17.3,31.9,40.6,33.4,65.5c0,0,2,35.3-22,57.3
	c-24.1,22-70.7,24.1-98.3,12.3l-24.6,0.5C122.2,321,81.2,344.6,24.4,308.2z"/>
<path class="st6" d="M107.7,307.6c0,0,21.2,25.7,56.3,2.4"/>
<g>
	<path class="st7" d="M52.3,299.6c-7,0.1-12.7-0.4-19,3.3c-4.4,2.5-8.1,6-11.8,9.4c-2.7,2.5-5.4,5.1-7.3,8.2c-3.6,6-2.4,13,1.8,18.4
		c7,9,18.8,12.6,29.8,12c6.5-0.4,15.1-1.1,20.7-4.6c5.8-3.6,8.5-10.7,9-17.5s-1-13.4-1.5-20.2"/>
	<circle cx="53.4" cy="334.7" r="6.2"/>
	<ellipse transform="matrix(0.3296 -0.9441 0.9441 0.3296 -289.0681 257.573)" cx="36.8" cy="332.3" rx="6.2" ry="5"/>
	<ellipse transform="matrix(0.7071 -0.7071 0.7071 0.7071 -222.2873 113.2752)" cx="25.6" cy="325" rx="5.8" ry="3.9"/>
	<g>
		<ellipse transform="matrix(0.4272 -0.9042 0.9042 0.4272 -255.2342 227.3391)" cx="51.8" cy="315.1" rx="5.2" ry="5.8"/>
		<ellipse transform="matrix(0.4272 -0.9042 0.9042 0.4272 -256.6616 216.5969)" cx="42.6" cy="310.9" rx="5.2" ry="5.8"/>
		<path d="M38.5,315.8c0.2-3,0.2-6.9,8.7-2.9c6,2.8,5.9,5.5,3.7,7.6c-2.9,2.7-4.9,3.5-8.2,2C39.3,320.9,38.3,319.1,38.5,315.8z"/>
		<ellipse transform="matrix(0.4272 -0.9042 0.9042 0.4272 -254.4464 221.5957)" cx="47.7" cy="311.6" rx="2.3" ry="8.9"/>
	</g>
</g>
<g>
	<path class="st7" d="M209.5,299.6c7,0.1,12.7-0.4,19,3.3c4.4,2.5,8.1,6,11.8,9.4c2.7,2.5,5.4,5.1,7.3,8.2c3.6,6,2.4,13-1.8,18.4
		c-7,9-18.8,12.6-29.8,12c-6.5-0.4-15.1-1.1-20.7-4.6c-5.8-3.6-8.5-10.7-9-17.5s0.9-13.5,1.5-20.3"/>
	<circle cx="208.4" cy="334.7" r="6.2"/>
	<ellipse transform="matrix(0.9441 -0.3296 0.3296 0.9441 -96.9584 92.6967)" cx="224.9" cy="332.3" rx="5" ry="6.2"/>
	<ellipse transform="matrix(0.7071 -0.7071 0.7071 0.7071 -160.6215 262.1835)" cx="236.2" cy="325" rx="3.9" ry="5.8"/>
	<g>
		<ellipse transform="matrix(0.9042 -0.4272 0.4272 0.9042 -114.4823 119.9129)" cx="210" cy="315.1" rx="5.8" ry="5.2"/>
		<ellipse transform="matrix(0.9042 -0.4272 0.4272 0.9042 -111.7781 123.3858)" cx="219.1" cy="310.8" rx="5.8" ry="5.2"/>
		<path d="M223.3,315.8c-0.2-3-0.2-6.9-8.7-2.9c-6,2.8-5.9,5.5-3.7,7.6c2.9,2.7,4.9,3.5,8.2,2C222.5,320.9,223.5,319.1,223.3,315.8z
			"/>
		<ellipse transform="matrix(0.9042 -0.4272 0.4272 0.9042 -112.5889 121.3732)" cx="214.2" cy="311.6" rx="8.9" ry="2.3"/>
	</g>
</g>
<path class="st4" d="M94.9,194.9"/>
<polyline class="st5" points="110.3,199.2 120.9,217.1 123,208.1 135.2,226.3 150.1,207.4 153.7,217.1 163.4,204.3 "/>
</svg>
