<?xml version="1.0" encoding="utf-8"?>
<!-- Generator: Adobe Illustrator 21.0.0, SVG Export Plug-In . SVG Version: 6.00 Build 0)  -->
<!DOCTYPE svg PUBLIC "-//W3C//DTD SVG 1.1//EN" "http://www.w3.org/Graphics/SVG/1.1/DTD/svg11.dtd">
<svg version="1.1" id="Layer_1" xmlns="http://www.w3.org/2000/svg" xmlns:xlink="http://www.w3.org/1999/xlink" x="0px" y="0px"
	 width="2145.4px" height="739.3px" viewBox="0 0 2145.4 739.3" style="enable-background:new 0 0 2145.4 739.3;"
	 xml:space="preserve">
<style type="text/css">
	.st0{opacity:0.49;fill:#D3912F;}
	.st1{fill:#2A2822;stroke:#000000;stroke-width:5.1731;stroke-linecap:round;stroke-linejoin:round;stroke-miterlimit:10;}
	.st2{fill:#FFFFFF;}
	.st3{fill:#D3912F;}
	.st4{fill:#2A2822;}
	.st5{fill:none;stroke:#000000;stroke-width:5.6756;stroke-linecap:round;stroke-linejoin:round;stroke-miterlimit:10;}
	.st6{fill:none;stroke:#000000;stroke-width:5.6756;stroke-linecap:round;stroke-miterlimit:10;}
	.st7{fill:#FFFFFF;stroke:#000000;stroke-width:5.6756;stroke-linecap:round;stroke-miterlimit:10;}
	.st8{fill:none;stroke:#000000;stroke-width:5.6756;stroke-miterlimit:10;}
	.st9{fill:#D3912F;stroke:#000000;stroke-width:5.1731;stroke-linecap:round;stroke-linejoin:round;stroke-miterlimit:10;}
	.st10{fill:none;stroke:#000000;stroke-width:3.7838;stroke-linecap:round;stroke-linejoin:round;stroke-miterlimit:10;}
	.st11{fill:#FFFFFF;stroke:#000000;stroke-width:5.6756;stroke-linecap:round;stroke-linejoin:round;stroke-miterlimit:10;}
	.st12{fill:none;stroke:#000000;stroke-width:5.1731;stroke-linecap:round;stroke-linejoin:round;stroke-miterlimit:10;}
	.st13{fill:#FFFFFF;stroke:#000000;stroke-width:5.7628;stroke-linecap:round;stroke-linejoin:round;stroke-miterlimit:10;}
	.st14{fill:#FFFFFF;stroke:#000000;stroke-width:4.9449;stroke-linecap:round;stroke-linejoin:round;stroke-miterlimit:10;}
	.st15{fill:#D3912F;stroke:#000000;stroke-width:5.7628;stroke-linecap:round;stroke-linejoin:round;stroke-miterlimit:10;}
	.st16{fill:none;stroke:#000000;stroke-width:5.7628;stroke-linecap:round;stroke-linejoin:round;stroke-miterlimit:10;}
	.st17{fill:#F9B3A4;stroke:#000000;stroke-width:5.7628;stroke-linecap:round;stroke-linejoin:round;stroke-miterlimit:10;}
	.st18{fill:#FFFFFF;stroke:#FFFFFF;stroke-width:0.8233;stroke-linecap:round;stroke-linejoin:round;stroke-miterlimit:10;}
	.st19{fill:#FFFFFF;stroke:#000000;stroke-width:7;stroke-linecap:round;stroke-linejoin:round;stroke-miterlimit:10;}
	.st20{fill:#D3912F;stroke:#000000;stroke-width:7;stroke-linecap:round;stroke-linejoin:round;stroke-miterlimit:10;}
	.st21{fill:none;stroke:#000000;stroke-width:7;stroke-linecap:round;stroke-linejoin:round;stroke-miterlimit:10;}
	.st22{fill:#F9B3A4;stroke:#000000;stroke-width:7;stroke-linecap:round;stroke-linejoin:round;stroke-miterlimit:10;}
	.st23{fill:#FFFFFF;stroke:#FFFFFF;stroke-width:7;stroke-linecap:round;stroke-linejoin:round;stroke-miterlimit:10;}
</style>
<path class="st0" d="M1612.7,346.7v204.7c0,84.2-49.7,118.6-108.3,118.6c-55.3,0-88.5-37-101.1-67.2l43.6-18.1
	c7.8,18.6,26.8,40.5,57.4,40.5c37.6,0,60.9-23.2,60.9-66.8v-16.4h-1.7c-11.2,13.8-32.8,25.9-60,25.9c-57,0-109.2-49.7-109.2-113.5
	c0-64.4,52.2-114.4,109.2-114.4c27.2,0,48.8,12.1,60,25.5h1.7v-18.6L1612.7,346.7L1612.7,346.7z M1568.7,454.2
	c0-40.1-26.8-69.5-60.9-69.5c-34.5,0-63.5,29.3-63.5,69.5c0,39.7,28.9,68.7,63.5,68.7C1541.9,522.9,1568.7,494,1568.7,454.2z"/>
<path class="st0" d="M1691.1,226.7v334.1h-48.8V226.7H1691.1z"/>
<path class="st0" d="M1881.4,491.3l38.9,25.9c-12.5,18.6-42.8,50.5-95,50.5c-64.8,0-113.1-50.1-113.1-114c0-67.8,48.8-114,107.5-114
	c59.2,0,88.1,47.1,97.6,72.5l5.2,13L1770,488.4c11.7,22.9,29.8,34.5,55.3,34.5C1850.8,522.9,1868.4,510.4,1881.4,491.3L1881.4,491.3
	z M1761.8,450.3l101.9-42.3c-5.6-14.2-22.5-24.2-42.3-24.2C1795.9,383.9,1760.5,406.3,1761.8,450.3z"/>
<path class="st0" d="M780.1,424.2v-48.4h163c1.6,8.4,2.4,18.4,2.4,29.2c0,36.3-9.9,81.2-41.9,113.1c-31.1,32.4-70.8,49.7-123.5,49.7
	c-97.6,0-179.6-79.5-179.6-177s82-177,179.6-177c54,0,92.4,21.2,121.3,48.8l-34.1,34.1c-20.7-19.4-48.8-34.5-87.2-34.5
	c-71.2,0-127,57.4-127,128.7s55.7,128.7,127,128.7c46.2,0,72.5-18.6,89.4-35.4c13.7-13.7,22.7-33.2,26.2-59.9L780.1,424.2z"/>
<g>
	<path class="st1" d="M831,981.1c-1,1.1-3,0.3-3.5-1.1c-0.7-1.7,1.4-5.5-1.7-5c-0.8,0.1-1.6,0.2-2.4-0.1c-4.5-1.8,0.4-9.4,3.9-9.5
		c-1.2-0.2-2.5-0.5-3.5-1.3c-1-0.8-1.7-2-1.6-3.2c0.2-2.1,3.3-3.2,5.1-3.5c0.5-0.1,1.1-0.1,1.6-0.3c2.5-0.7,3-3.8,1.3-5.6
		c-1.2-1.2-2.9-1.9-4.1-3.2c-1.9-2-2.1-5.1-2-7.9c0.3-17.4,4.4-34.8,11.8-50.5c-1,2,13.1,15.6,14.6,17.4
		c6.3,7.4,12.5,15.1,18.4,22.8c6-4.1,15.3-7.5,22.4-9.1c19.3-4.4,37.6-0.4,55.5,7c0.6,0.3,1.3,0.5,1.9,0.8
		c3.5-8.1,6.9-16.2,10.4-24.2c1.5-3.6,2.9-7.4,4.7-10.9c1.4-2.6,2-3.2,4.5-1.1c7.2,5.9,11.4,14.9,13.7,23.8c0.4,1.5,0.7,2.9,0.9,4.4
		c1.4,7.7,1.7,15.6,2.2,23.4c0.2,3.3-0.4,9,1.1,12c1.7,3.4,5,0.3,8.5,1.7c0.4,0.1,0.8,0.3,1,0.7c0.2,0.3,0.2,0.7,0.2,1.1
		c0,0.7,0,1.4,0,2.1c0,0.4,0,0.9-0.2,1.2c-0.2,0.3-0.5,0.5-0.9,0.7c-1.1,0.6-2.1,1.3-3.2,1.9c1.7-0.2,3.5,0.5,4.6,1.8
		c1.1,1.3,1.4,3.2,0.9,4.8c-1.2,3.5-5.1,5.8-6.7,9.2"/>
	<g>
		<path class="st2" d="M791.4,1117.2c0,0-9.4-8.7-15.8-24.1c-8.6-20.7-11.6-53.5,20.9-93.7c56.8-70.1,161.3-36.9,161.3-36.9
			s68.1,31.2,76.3,97.3c0,0,2,35.3-22,57.3c-24.1,22-70.7,24.1-98.3,12.3l-24.6,0.5C889.2,1130,848.2,1153.5,791.4,1117.2z"/>
		<g>
			<path class="st3" d="M879.4,1006.8c0,0-0.4-0.1-1.2-0.4c-9.6-2.7-74.5-17.1-103.7,82l18.7-73.3l64.6-31.5l60.5-4.7l96.5,45.9
				l13.6,31.8l2.8,22.5c0,0-29.2-81.5-118.9-73.6"/>
			<polyline class="st3" points="879,1006.7 887.3,1018.2 890.3,1008 902,1025.4 916.8,1005.2 920,1013.5 932.1,1005.3 939,997.4 
				881.9,997.4 			"/>
		</g>
		<path class="st4" d="M775.9,1090.8c-1.1-2,0.6-7.9,0.9-10c1.2-8.2,3.2-16.4,6.2-24.2c8.9-23.5,25.9-40.9,48.9-50.9
			c12.9-5.6,27.6-6.9,41.4-4.1c2,0.4,4.1,0.9,5.8,2c3.7,2.2,5.9,6.2,7.9,10.1c0.8-3.8,1.5-7.5,2.3-11.3c-0.7,2.6,10.6,15,12.6,17.7
			l15.2-18.8l3.5,9.7l11.8-8.6c0,0,77-5.7,98.1,76.9c0,0,18.9-60.3-59.7-108.6c-26.7-16.4-50.9-16.2-72.5-16
			c-58.2,0.4-95.7,38.4-95.7,38.4S751.7,1043.9,775.9,1090.8z"/>
		<path class="st5" d="M791.4,1117.2c0,0-9.4-8.7-15.8-24.1c-8.6-20.7-11.6-53.5,20.9-93.7c19.2-23.7,47-37.3,76.8-42
			c30.6-4.9,63.8-4.1,92,10c13.6,6.8,24.9,16.2,35.4,27.1c16.8,17.3,31.9,40.6,33.4,65.5c0,0,2,35.3-22,57.3
			c-24.1,22-70.7,24.1-98.3,12.3l-24.6,0.5C889.2,1130,848.2,1153.5,791.4,1117.2z"/>
		<path class="st6" d="M874.7,1116.6c0,0,21.2,25.7,56.3,2.4"/>
		<g>
			<path class="st7" d="M819.3,1108.6c-7,0.1-12.7-0.4-19,3.3c-4.4,2.5-8.1,6-11.8,9.4c-2.7,2.5-5.4,5.1-7.3,8.2
				c-3.6,6-2.4,13,1.8,18.4c7,9,18.8,12.6,29.8,12c6.5-0.4,15.1-1.1,20.7-4.6c5.8-3.6,8.5-10.7,9-17.5c0.5-6.8-0.9-13.5-1.5-20.3"/>
			<circle cx="820.4" cy="1143.7" r="6.2"/>
			<ellipse transform="matrix(0.3296 -0.9441 0.9441 0.3296 -538.5864 1524.1133)" cx="803.9" cy="1141.3" rx="6.2" ry="5"/>
			<ellipse transform="matrix(0.7071 -0.7071 0.7071 0.7071 -569.7309 892.5728)" cx="792.6" cy="1134" rx="5.8" ry="3.9"/>
			<g>
				<ellipse transform="matrix(0.4272 -0.9042 0.9042 0.4272 -547.3301 1384.205)" cx="818.8" cy="1124.1" rx="5.2" ry="5.8"/>
				<ellipse transform="matrix(0.4272 -0.9042 0.9042 0.4272 -548.6639 1373.444)" cx="809.6" cy="1119.7" rx="5.2" ry="5.8"/>
				<path d="M805.5,1124.8c0.2-3,0.2-6.9,8.7-2.9c6,2.8,5.9,5.5,3.7,7.6c-2.9,2.7-4.9,3.5-8.2,2
					C806.3,1129.9,805.3,1128.1,805.5,1124.8z"/>
				<ellipse transform="matrix(0.4272 -0.9042 0.9042 0.4272 -546.5353 1378.3573)" cx="814.6" cy="1120.5" rx="2.3" ry="8.9"/>
			</g>
		</g>
		<path class="st4" d="M886.4,992.7c0,0,25.9-63.1-22.6-113.6l21.6-3c0,0,3.4-23.1-34.6-63.9c0,0,59.8-7.5,79.2,42.8l4.1-12.7
			c0,0,60.8,31.1-12,150.4"/>
		<g>
			<path class="st7" d="M976.5,1108.6c7,0.1,12.7-0.4,19,3.3c4.4,2.5,8.1,6,11.8,9.4c2.7,2.5,5.4,5.1,7.3,8.2c3.6,6,2.4,13-1.8,18.4
				c-7,9-18.8,12.6-29.8,12c-6.5-0.4-15.1-1.1-20.7-4.6c-5.8-3.6-8.5-10.7-9-17.5c-0.5-6.8,0.9-13.5,1.5-20.3"/>
			<circle cx="975.4" cy="1143.7" r="6.2"/>
			<ellipse transform="matrix(0.9441 -0.3296 0.3296 0.9441 -320.7086 390.6528)" cx="991.9" cy="1141.3" rx="5" ry="6.2"/>
			<ellipse transform="matrix(0.7071 -0.7071 0.7071 0.7071 -508.0362 1041.517)" cx="1003.2" cy="1134" rx="3.9" ry="5.8"/>
			<g>
				<ellipse transform="matrix(0.9042 -0.4272 0.4272 0.9042 -386.5648 525.0852)" cx="977" cy="1124.1" rx="5.8" ry="5.2"/>
				<ellipse transform="matrix(0.9042 -0.4272 0.4272 0.9042 -383.8381 528.5835)" cx="986.1" cy="1119.7" rx="5.8" ry="5.2"/>
				<path d="M990.3,1124.8c-0.2-3-0.2-6.9-8.7-2.9c-6,2.8-5.9,5.5-3.7,7.6c2.9,2.7,4.9,3.5,8.2,2
					C989.5,1129.9,990.5,1128.1,990.3,1124.8z"/>
				<ellipse transform="matrix(0.9042 -0.4272 0.4272 0.9042 -384.6436 526.5468)" cx="981.2" cy="1120.5" rx="8.9" ry="2.3"/>
			</g>
		</g>
		<path class="st2" d="M877.2,896.1c0,0,10.1,6.8,15.5,12.6c0,0,10.8-21.8,13.7-29.7c0,0,13.7,9.1,15,23.3c0,0,18.7-8.7,17.9-27.4
			c0,0,18,14.1,17.3,33.8c0,0,3.7-34.4-5.6-47.4c-9.3-13-17-19-17-19l-3.1,16.4c0,0-14.4-50.9-80.2-46.4c0,0,36,31.5,34.6,63.9
			l-19,2.7"/>
		<path class="st8" d="M886.4,992.7c0,0,25.9-63.1-22.6-113.6l21.6-3c0,0,3.4-23.1-34.6-63.9c0,0,59.8-7.5,79.2,42.8l4.1-12.7
			c0,0,60.8,31.1-12,150.4"/>
		<path class="st3" d="M861.9,1003.9"/>
	</g>
</g>
<g>
	<path class="st9" d="M1225.5,977.8c-1,1.1-3,0.3-3.5-1.1c-0.7-1.7,1.4-5.5-1.7-5c-0.8,0.1-1.7,0.2-2.4-0.1
		c-4.5-1.8,0.4-9.4,3.9-9.5c-1.2-0.2-2.5-0.5-3.5-1.3c-1-0.8-1.7-2-1.6-3.2c0.2-2.1,3.3-3.2,5.1-3.5c0.5-0.1,1.1-0.1,1.6-0.3
		c2.5-0.7,3-3.8,1.3-5.6c-1.2-1.2-2.9-1.9-4.1-3.2c-1.9-2-2.1-5.1-2-7.9c0.3-17.4,4.4-34.8,11.8-50.5c-1,2,13.1,15.6,14.6,17.4
		c6.3,7.4,12.5,15.1,18.4,22.8c6-4.1,15.3-7.5,22.4-9.1c19.3-4.4,37.6-0.4,55.5,7c0.6,0.3,1.3,0.5,1.9,0.8
		c3.5-8.1,6.9-16.2,10.4-24.2c1.5-3.6,2.9-7.4,4.7-10.9c1.4-2.6,2-3.2,4.5-1.1c7.2,5.9,11.4,14.9,13.7,23.8c0.4,1.5,0.7,2.9,0.9,4.4
		c1.4,7.7,1.7,15.6,2.2,23.4c0.2,3.3-0.4,9,1.1,12c1.7,3.4,5,0.3,8.5,1.7c0.4,0.1,0.8,0.3,1,0.7c0.2,0.3,0.2,0.7,0.2,1.1
		c0,0.7,0,1.4,0,2.1c0,0.4,0,0.9-0.2,1.2c-0.2,0.3-0.5,0.5-0.9,0.7c-1.1,0.6-2.1,1.3-3.2,1.9c1.7-0.2,3.5,0.5,4.6,1.8
		c1.1,1.3,1.4,3.2,0.9,4.8c-1.2,3.5-5.1,5.8-6.7,9.2"/>
	<g>
		<path class="st2" d="M1183,1117.2c0,0-9.4-8.7-15.8-24.1c-8.6-20.7-11.6-53.5,20.9-93.7c56.8-70.1,161.3-36.9,161.3-36.9
			s68.1,31.2,76.3,97.3c0,0,2,35.3-22,57.3c-24.1,22-70.7,24.1-98.3,12.3l-24.6,0.5C1280.8,1130,1239.8,1153.5,1183,1117.2z"/>
		<path class="st3" d="M1167.5,1090.8c-1.1-2,0.6-7.9,0.9-10c1.2-8.2,3.2-16.4,6.2-24.2c8.9-23.5,25.9-40.9,48.9-50.9
			c12.9-5.6,27.6-6.9,41.4-4.1c2,0.4,4.1,0.9,5.8,2c3.7,2.2,5.9,6.2,7.9,10.1c0.8-3.8,1.5-7.5,2.3-11.3c-0.7,2.6,10.6,15,12.6,17.7
			l15.2-18.8l3.5,9.7l11.8-8.6c0,0,77-5.7,98.1,76.9c0,0,18.9-60.3-59.7-108.6c-26.7-16.4-50.9-16.2-72.5-16
			c-58.2,0.4-95.7,38.4-95.7,38.4S1143.3,1043.9,1167.5,1090.8z"/>
		<path class="st5" d="M1183,1117.2c0,0-9.4-8.7-15.8-24.1c-8.6-20.7-11.6-53.5,20.9-93.7c19.2-23.7,47-37.3,76.8-42
			c30.6-4.9,63.8-4.1,92,10c13.6,6.8,24.9,16.2,35.4,27.1c16.8,17.3,31.9,40.6,33.4,65.5c0,0,2,35.3-22,57.3
			c-24.1,22-70.7,24.1-98.3,12.3l-24.6,0.5C1280.8,1130,1239.8,1153.5,1183,1117.2z"/>
		<path class="st6" d="M1266.3,1116.6c0,0,21.2,25.7,56.3,2.4"/>
		<g>
			<path class="st7" d="M1210.9,1108.6c-7,0.1-12.7-0.4-19,3.3c-4.4,2.5-8.1,6-11.8,9.4c-2.7,2.5-5.4,5.1-7.3,8.2
				c-3.6,6-2.4,13,1.8,18.4c7,9,18.8,12.6,29.8,12c6.5-0.4,15.1-1.1,20.7-4.6c5.8-3.6,8.5-10.7,9-17.5c0.5-6.8-0.9-13.5-1.5-20.3"/>
			<circle cx="1212" cy="1143.7" r="6.2"/>
			<ellipse transform="matrix(0.3296 -0.9441 0.9441 0.3296 -276.0293 1893.8547)" cx="1195.5" cy="1141.3" rx="6.2" ry="5"/>
			<ellipse transform="matrix(0.7071 -0.7071 0.7071 0.7071 -455.0282 1169.4895)" cx="1184.2" cy="1134" rx="5.8" ry="3.9"/>
			<g>
				<ellipse transform="matrix(0.4272 -0.9042 0.9042 0.4272 -323.0077 1738.2917)" cx="1210.4" cy="1124.1" rx="5.2" ry="5.8"/>
				<ellipse transform="matrix(0.4272 -0.9042 0.9042 0.4272 -324.3415 1727.5308)" cx="1201.3" cy="1119.7" rx="5.2" ry="5.8"/>
				<path d="M1197.1,1124.8c0.2-3,0.2-6.9,8.7-2.9c6,2.8,5.9,5.5,3.7,7.6c-2.9,2.7-4.9,3.5-8.2,2
					C1197.9,1129.9,1196.9,1128.1,1197.1,1124.8z"/>
				<ellipse transform="matrix(0.4272 -0.9042 0.9042 0.4272 -322.2129 1732.4441)" cx="1206.2" cy="1120.5" rx="2.3" ry="8.9"/>
			</g>
		</g>
		<path class="st3" d="M1278,992.7c0,0,25.9-63.1-22.6-113.6l21.6-3c0,0,3.4-23.1-34.6-63.9c0,0,59.8-7.5,79.2,42.8l4.1-12.7
			c0,0,60.8,31.1-12,150.4"/>
		<g>
			<path class="st7" d="M1368.1,1108.6c7,0.1,12.7-0.4,19,3.3c4.4,2.5,8.1,6,11.8,9.4c2.7,2.5,5.4,5.1,7.3,8.2
				c3.6,6,2.4,13-1.8,18.4c-7,9-18.8,12.6-29.8,12c-6.5-0.4-15.1-1.1-20.7-4.6c-5.8-3.6-8.5-10.7-9-17.5c-0.5-6.8,0.9-13.5,1.5-20.3
				"/>
			<circle cx="1367" cy="1143.7" r="6.2"/>
			<ellipse transform="matrix(0.9441 -0.3296 0.3296 0.9441 -298.8306 519.7151)" cx="1383.5" cy="1141.3" rx="5" ry="6.2"/>
			<ellipse transform="matrix(0.7071 -0.7071 0.7071 0.7071 -393.3335 1318.4337)" cx="1394.8" cy="1134" rx="3.9" ry="5.8"/>
			<g>
				<ellipse transform="matrix(0.9042 -0.4272 0.4272 0.9042 -349.0322 692.3823)" cx="1368.6" cy="1124.1" rx="5.8" ry="5.2"/>
				<ellipse transform="matrix(0.9042 -0.4272 0.4272 0.9042 -346.3055 695.8806)" cx="1377.7" cy="1119.7" rx="5.8" ry="5.2"/>
				<path d="M1381.9,1124.8c-0.2-3-0.2-6.9-8.7-2.9c-6,2.8-5.9,5.5-3.7,7.6c2.9,2.7,4.9,3.5,8.2,2
					C1381.1,1129.9,1382.1,1128.1,1381.9,1124.8z"/>
				<ellipse transform="matrix(0.9042 -0.4272 0.4272 0.9042 -347.111 693.8438)" cx="1372.8" cy="1120.5" rx="8.9" ry="2.3"/>
			</g>
		</g>
		<path class="st2" d="M1268.9,896.1c0,0,10.1,6.8,15.5,12.6c0,0,10.8-21.8,13.7-29.7c0,0,13.7,9.1,15,23.3c0,0,18.7-8.7,17.9-27.4
			c0,0,18,14.1,17.3,33.8c0,0,3.7-34.4-5.6-47.4c-9.3-13-17-19-17-19l-3.1,16.4c0,0-14.4-50.9-80.2-46.4c0,0,36,31.5,34.6,63.9
			l-19,2.7"/>
		<path class="st8" d="M1278,992.7c0,0,25.9-63.1-22.6-113.6l21.6-3c0,0,3.4-23.1-34.6-63.9c0,0,59.8-7.5,79.2,42.8l4.1-12.7
			c0,0,60.8,31.1-12,150.4"/>
		<g>
			<line class="st10" x1="1299.1" y1="1009.9" x2="1289.8" y2="1019.6"/>
			<line class="st10" x1="1289.8" y1="1009.9" x2="1299.1" y2="1019.6"/>
		</g>
	</g>
</g>
<g>
	<path class="st9" d="M968.3,416c-1,1.1-3,0.3-3.5-1.1c-0.7-1.7,1.4-5.5-1.7-5c-0.8,0.1-1.7,0.2-2.4-0.1c-4.5-1.8,0.4-9.4,3.9-9.5
		c-1.2-0.2-2.5-0.5-3.5-1.3c-1-0.8-1.7-2-1.6-3.2c0.2-2.1,3.3-3.2,5.1-3.5c0.5-0.1,1.1-0.1,1.6-0.3c2.5-0.7,3-3.8,1.3-5.6
		c-1.2-1.2-2.9-1.9-4.1-3.2c-1.9-2-2.1-5.1-2-7.9c0.2-8.6,1.2-17.2,3.2-25.6c1-4.2,2.2-8.4,3.6-12.5c0.7-2,1.5-4.1,2.3-6.1
		c0.4-1,0.8-2,1.3-3c0.5-1.1,0.6-1.7,1.5-3.1c0.2,0.5,1.1,2.3,1.4,2.7c0.7,1,1.5,1.9,2.3,2.9c1.6,1.8,3.2,3.6,4.9,5.3
		c2,2.1,4.2,4.1,6.1,6.3c6.3,7.4,12.5,15.1,18.4,22.8c6-4.1,15.3-7.5,22.4-9.1c19.3-4.4,37.6-0.4,55.5,7c0.6,0.3,1.3,0.5,1.9,0.8
		c3.5-8.1,6.9-16.2,10.4-24.2c1.5-3.6,2.9-7.4,4.7-10.9c1.4-2.6,2-3.2,4.5-1.1c7.2,5.9,11.4,14.9,13.7,23.8c0.4,1.5,0.7,2.9,0.9,4.4
		c1.4,7.7,1.7,15.6,2.2,23.4c0.2,3.3-0.4,9,1.1,12c1.7,3.4,5,0.3,8.5,1.7c0.4,0.1,0.8,0.3,1,0.7c0.2,0.3,0.2,0.7,0.2,1.1
		c0,0.7,0,1.4,0,2.1c0,0.4,0,0.9-0.2,1.2c-0.2,0.3-0.5,0.5-0.9,0.7c-1.1,0.6-2.1,1.3-3.2,1.9c1.7-0.2,3.5,0.5,4.6,1.8
		c1.1,1.3,1.4,3.2,0.9,4.8c-1.2,3.5-5.1,5.8-6.7,9.2"/>
	<g>
		<path class="st2" d="M925.8,555.4c0,0-9.4-8.7-15.8-24.1c-8.6-20.7-11.6-53.5,20.9-93.7c56.8-70.1,161.3-36.9,161.3-36.9
			s68.1,31.2,76.3,97.3c0,0,2,35.3-22,57.3c-24.1,22-70.7,24.1-98.3,12.3l-24.6,0.5C1023.6,568.2,982.7,591.8,925.8,555.4z"/>
		<path class="st3" d="M910.4,529c-1.1-2,0.6-7.9,0.9-10c1.2-8.2,3.2-16.4,6.2-24.2c8.9-23.5,25.9-40.9,48.9-50.9
			c12.9-5.6,27.6-6.9,41.4-4.1c2,0.4,4.1,0.9,5.8,2c3.7,2.2,5.9,6.2,7.9,10.1c0.8-3.8,1.5-7.5,2.3-11.3c-0.7,2.6,10.6,15,12.6,17.7
			l15.2-18.8l3.5,9.7l11.8-8.6c0,0,77-5.7,98.1,76.9c0,0,18.9-60.3-59.7-108.6c-26.7-16.4-50.9-16.2-72.5-16
			c-58.2,0.4-95.7,38.4-95.7,38.4S886.2,482.1,910.4,529z"/>
		<path class="st5" d="M925.8,555.4c0,0-9.4-8.7-15.8-24.1c-8.6-20.7-11.6-53.5,20.9-93.7c19.2-23.7,47-37.3,76.8-42
			c30.6-4.9,63.8-4.1,92,10c13.6,6.8,24.9,16.2,35.4,27.1c16.8,17.3,31.9,40.6,33.4,65.5c0,0,2,35.3-22,57.3
			c-24.1,22-70.7,24.1-98.3,12.3l-24.6,0.5C1023.6,568.2,982.7,591.8,925.8,555.4z"/>
		<path class="st5" d="M1009.2,554.9c0,0,21.2,25.7,56.3,2.4"/>
		<g>
			<path class="st11" d="M953.8,546.8c-7,0.1-12.7-0.4-19,3.3c-4.4,2.5-8.1,6-11.8,9.4c-2.7,2.5-5.4,5.1-7.3,8.2
				c-3.6,6-2.4,13,1.8,18.4c7,9,18.8,12.6,29.8,12c6.5-0.4,15.1-1.1,20.7-4.6c5.8-3.6,8.5-10.7,9-17.5c0.5-6.8-0.9-13.5-1.5-20.3"/>
			<circle cx="954.9" cy="581.9" r="6.2"/>
			<ellipse transform="matrix(0.3296 -0.9441 0.9441 0.3296 81.9328 1274.4589)" cx="938.3" cy="579.5" rx="6.2" ry="5"/>
			<ellipse transform="matrix(0.7071 -0.7071 0.7071 0.7071 -133.1308 823.1289)" cx="927" cy="572.3" rx="5.8" ry="3.9"/>
			<g>
				<ellipse transform="matrix(0.4272 -0.9042 0.9042 0.4272 37.605 1184.0195)" cx="953.3" cy="562.3" rx="5.2" ry="5.8"/>
				<ellipse transform="matrix(0.4272 -0.9042 0.9042 0.4272 36.2712 1173.2585)" cx="944.1" cy="558" rx="5.2" ry="5.8"/>
				<path d="M939.9,563c0.2-3,0.2-6.9,8.7-2.9c6,2.8,5.9,5.5,3.7,7.6c-2.9,2.7-4.9,3.5-8.2,2C940.8,568.1,939.7,566.3,939.9,563z"/>
				<ellipse transform="matrix(0.4272 -0.9042 0.9042 0.4272 38.3998 1178.1718)" cx="949.1" cy="558.8" rx="2.3" ry="8.9"/>
			</g>
		</g>
		<path class="st3" d="M1020.9,431c0,0,25.9-63.1-22.6-113.6l21.6-3c0,0,3.4-23.1-34.6-63.9c0,0,59.8-7.5,79.2,42.8l4.1-12.7
			c0,0,60.8,31.1-12,150.4"/>
		<g>
			<path class="st11" d="M1111,546.8c7,0.1,12.7-0.4,19,3.3c4.4,2.5,8.1,6,11.8,9.4c2.7,2.5,5.4,5.1,7.3,8.2c3.6,6,2.4,13-1.8,18.4
				c-7,9-18.8,12.6-29.8,12c-6.5-0.4-15.1-1.1-20.7-4.6c-5.8-3.6-8.5-10.7-9-17.5c-0.5-6.8,0.9-13.5,1.5-20.3"/>
			<circle cx="1109.9" cy="581.9" r="6.2"/>
			<ellipse transform="matrix(0.9441 -0.3296 0.3296 0.9441 -128.0672 403.5879)" cx="1126.4" cy="579.5" rx="5" ry="6.2"/>
			<ellipse transform="matrix(0.7071 -0.7071 0.7071 0.7071 -71.4361 972.0731)" cx="1137.7" cy="572.3" rx="3.9" ry="5.8"/>
			<g>
				<ellipse transform="matrix(0.9042 -0.4272 0.4272 0.9042 -133.7035 528.6942)" cx="1111.4" cy="562.3" rx="5.8" ry="5.2"/>
				<ellipse transform="matrix(0.9042 -0.4272 0.4272 0.9042 -130.9768 532.1924)" cx="1120.6" cy="558" rx="5.8" ry="5.2"/>
				<path d="M1124.8,563c-0.2-3-0.2-6.9-8.7-2.9c-6,2.8-5.9,5.5-3.7,7.6c2.9,2.7,4.9,3.5,8.2,2C1123.9,568.1,1125,566.3,1124.8,563z
					"/>
				<ellipse transform="matrix(0.9042 -0.4272 0.4272 0.9042 -131.7822 530.1556)" cx="1115.7" cy="558.8" rx="8.9" ry="2.3"/>
			</g>
		</g>
		<path class="st2" d="M1011.7,334.3c0,0,10.1,6.8,15.5,12.6c0,0,10.8-21.8,13.7-29.7c0,0,13.7,9.1,15,23.3c0,0,18.7-8.7,17.9-27.4
			c0,0,18,14.1,17.3,33.8c0,0,3.7-34.4-5.6-47.4s-17-19-17-19l-3.1,16.4c0,0-14.4-50.9-80.2-46.4c0,0,36,31.5,34.6,63.9l-19,2.7"/>
		<path class="st5" d="M1020.9,431c0,0,25.9-63.1-22.6-113.6l21.6-3c0,0,3.4-23.1-34.6-63.9c0,0,59.8-7.5,79.2,42.8l4.1-12.7
			c0,0,60.8,31.1-12,150.4"/>
		<g>
			<line class="st10" x1="1041.9" y1="448.1" x2="1032.7" y2="457.8"/>
			<line class="st10" x1="1032.7" y1="448.1" x2="1041.9" y2="457.8"/>
		</g>
	</g>
</g>
<g>
	<path class="st1" d="M1600.5,973.7c-1,1.1-3,0.3-3.5-1.1c-0.7-1.7,1.4-5.5-1.7-5c-0.8,0.1-1.7,0.2-2.4-0.1
		c-4.5-1.8,0.4-9.4,3.9-9.5c-1.2-0.2-2.5-0.5-3.5-1.3c-1-0.8-1.7-2-1.6-3.2c0.2-2.1,3.3-3.2,5.1-3.5c0.5-0.1,1.1-0.1,1.6-0.3
		c2.5-0.7,3-3.8,1.3-5.6c-1.2-1.2-2.9-1.9-4.1-3.2c-1.9-2-2.1-5.1-2-7.9c0.3-17.4,4.4-34.8,11.8-50.5c-1,2,13.1,15.6,14.6,17.4
		c6.3,7.4,12.5,15.1,18.4,22.8c6-4.1,15.3-7.5,22.4-9.1c19.3-4.4,37.6-0.4,55.5,7c0.6,0.3,1.3,0.5,1.9,0.8
		c3.5-8.1,6.9-16.2,10.4-24.2c1.5-3.6,2.9-7.4,4.7-10.9c1.4-2.6,2-3.2,4.5-1.1c7.2,5.9,11.4,14.9,13.7,23.8c0.4,1.5,0.7,2.9,0.9,4.4
		c1.4,7.7,1.7,15.6,2.2,23.4c0.2,3.3-0.4,9,1.1,12c1.7,3.4,5,0.3,8.5,1.7c0.4,0.1,0.8,0.3,1,0.7c0.2,0.3,0.2,0.7,0.2,1.1
		c0,0.7,0,1.4,0,2.1c0,0.4,0,0.9-0.2,1.2c-0.2,0.3-0.5,0.5-0.9,0.7c-1.1,0.6-2.1,1.3-3.2,1.9c1.7-0.2,3.5,0.5,4.6,1.8
		c1.1,1.3,1.4,3.2,0.9,4.8c-1.2,3.5-5.1,5.8-6.7,9.2"/>
	<polyline class="st2" points="1670.8,954.6 1665.3,928.4 1670.8,934.5 1668,912.3 1676.3,912.3 1678.9,920.7 1684.2,917.4 
		1684.2,954.6 	"/>
	<path class="st12" d="M1600.5,973.7c-1,1.1-3,0.3-3.5-1.1c-0.7-1.7,1.4-5.5-1.7-5c-0.8,0.1-1.7,0.2-2.4-0.1
		c-4.5-1.8,0.4-9.4,3.9-9.5c-1.2-0.2-2.5-0.5-3.5-1.3c-1-0.8-1.7-2-1.6-3.2c0.2-2.1,3.3-3.2,5.1-3.5c0.5-0.1,1.1-0.1,1.6-0.3
		c2.5-0.7,3-3.8,1.3-5.6c-1.2-1.2-2.9-1.9-4.1-3.2c-1.9-2-2.1-5.1-2-7.9c0.3-17.4,4.4-34.8,11.8-50.5c-1,2,13.1,15.6,14.6,17.4
		c6.3,7.4,12.5,15.1,18.4,22.8c6-4.1,15.3-7.5,22.4-9.1c19.3-4.4,37.6-0.4,55.5,7c0.6,0.3,1.3,0.5,1.9,0.8
		c3.5-8.1,6.9-16.2,10.4-24.2c1.5-3.6,2.9-7.4,4.7-10.9c1.4-2.6,2-3.2,4.5-1.1c7.2,5.9,11.4,14.9,13.7,23.8c0.4,1.5,0.7,2.9,0.9,4.4
		c1.4,7.7,1.7,15.6,2.2,23.4c0.2,3.3-0.4,9,1.1,12c1.7,3.4,5,0.3,8.5,1.7c0.4,0.1,0.8,0.3,1,0.7c0.2,0.3,0.2,0.7,0.2,1.1
		c0,0.7,0,1.4,0,2.1c0,0.4,0,0.9-0.2,1.2c-0.2,0.3-0.5,0.5-0.9,0.7c-1.1,0.6-2.1,1.3-3.2,1.9c1.7-0.2,3.5,0.5,4.6,1.8
		c1.1,1.3,1.4,3.2,0.9,4.8c-1.2,3.5-5.1,5.8-6.7,9.2"/>
	<g>
		<path class="st11" d="M1574.6,1117.2c0,0-9.4-8.7-15.8-24.1c-8.6-20.7-11.6-53.5,20.9-93.7c19.2-23.7,47-37.3,76.8-42
			c30.6-4.9,63.8-4.1,92,10c13.6,6.8,24.9,16.2,35.4,27.1c16.8,17.3,31.9,40.6,33.4,65.5c0,0,2,35.3-22,57.3
			c-24.1,22-70.7,24.1-98.3,12.3l-24.6,0.5C1672.4,1130,1631.4,1153.5,1574.6,1117.2z"/>
		<path class="st3" d="M1668.3,1008.4c0,0-79.6-27-111.2,80.1l18.7-73.3l64.6-31.5l60.5-4.7l96.5,45.9l13.6,31.8l2.8,22.5
			c0,0-29.2-81.5-118.9-73.6"/>
		<path class="st4" d="M1559.2,1090.8c-1.1-2,0.6-7.9,0.9-10c1.2-8.2,3.2-16.4,6.2-24.2c8.9-23.5,25.9-40.9,48.9-50.9
			c12.9-5.6,27.6-6.9,41.4-4.1c2,0.4,4.1,0.9,5.8,2c3.7,2.2,5.9,6.2,7.9,10.1c0.8-3.8,1.5-7.5,2.3-11.3c-0.7,2.6,10.6,15,12.6,17.7
			l15.2-18.8l3.5,9.7l11.8-8.6c0,0,77-5.7,98.1,76.9c0,0,18.9-60.3-59.7-108.6c-26.7-16.4-50.9-16.2-72.5-16
			c-58.2,0.4-95.7,38.4-95.7,38.4S1534.9,1043.9,1559.2,1090.8z"/>
		<path class="st5" d="M1574.6,1117.2c0,0-9.4-8.7-15.8-24.1c-8.6-20.7-11.6-53.5,20.9-93.7c19.2-23.7,47-37.3,76.8-42
			c30.6-4.9,63.8-4.1,92,10c13.6,6.8,24.9,16.2,35.4,27.1c16.8,17.3,31.9,40.6,33.4,65.5c0,0,2,35.3-22,57.3
			c-24.1,22-70.7,24.1-98.3,12.3l-24.6,0.5C1672.4,1130,1631.4,1153.5,1574.6,1117.2z"/>
		<polyline class="st5" points="1660.3,994.8 1670.9,1012.7 1672.9,1003.8 1685.2,1022 1700.1,1003 1703.6,1012.7 1713.4,999.9 		
			"/>
		<path class="st6" d="M1657.9,1116.6c0,0,21.2,25.7,56.3,2.4"/>
		<g>
			<path class="st7" d="M1602.5,1108.6c-7,0.1-12.7-0.4-19,3.3c-4.4,2.5-8.1,6-11.8,9.4c-2.7,2.5-5.4,5.1-7.3,8.2
				c-3.6,6-2.4,13,1.8,18.4c7,9,18.8,12.6,29.8,12c6.5-0.4,15.1-1.1,20.7-4.6c5.8-3.6,8.5-10.7,9-17.5c0.5-6.8-0.9-13.5-1.5-20.3"/>
			<circle cx="1603.6" cy="1143.7" r="6.2"/>
			<ellipse transform="matrix(0.3296 -0.9441 0.9441 0.3296 -13.4722 2263.5962)" cx="1587.1" cy="1141.3" rx="6.2" ry="5"/>
			<ellipse transform="matrix(0.7071 -0.7071 0.7071 0.7071 -340.3255 1446.4062)" cx="1575.8" cy="1134" rx="5.8" ry="3.9"/>
			<g>
				<ellipse transform="matrix(0.4272 -0.9042 0.9042 0.4272 -98.6853 2092.3787)" cx="1602" cy="1124.1" rx="5.2" ry="5.8"/>
				<ellipse transform="matrix(0.4272 -0.9042 0.9042 0.4272 -100.0191 2081.6177)" cx="1592.9" cy="1119.7" rx="5.2" ry="5.8"/>
				<path d="M1588.7,1124.8c0.2-3,0.2-6.9,8.7-2.9c6,2.8,5.9,5.5,3.7,7.6c-2.9,2.7-4.9,3.5-8.2,2
					C1589.6,1129.9,1588.5,1128.1,1588.7,1124.8z"/>
				<ellipse transform="matrix(0.4272 -0.9042 0.9042 0.4272 -97.8906 2086.5308)" cx="1597.8" cy="1120.5" rx="2.3" ry="8.9"/>
			</g>
		</g>
		<g>
			<path class="st7" d="M1759.7,1108.6c7,0.1,12.7-0.4,19,3.3c4.4,2.5,8.1,6,11.8,9.4c2.7,2.5,5.4,5.1,7.3,8.2
				c3.6,6,2.4,13-1.8,18.4c-7,9-18.8,12.6-29.8,12c-6.5-0.4-15.1-1.1-20.7-4.6c-5.8-3.6-8.5-10.7-9-17.5c-0.5-6.8,0.9-13.5,1.5-20.3
				"/>
			<circle cx="1758.6" cy="1143.7" r="6.2"/>
			<ellipse transform="matrix(0.9441 -0.3296 0.3296 0.9441 -276.9525 648.7775)" cx="1775.1" cy="1141.3" rx="5" ry="6.2"/>
			<ellipse transform="matrix(0.7071 -0.7071 0.7071 0.7071 -278.6309 1595.3505)" cx="1786.4" cy="1134" rx="3.9" ry="5.8"/>
			<g>
				<ellipse transform="matrix(0.9042 -0.4272 0.4272 0.9042 -311.4996 859.6793)" cx="1760.2" cy="1124.1" rx="5.8" ry="5.2"/>
				<ellipse transform="matrix(0.9042 -0.4272 0.4272 0.9042 -308.7729 863.1776)" cx="1769.4" cy="1119.7" rx="5.8" ry="5.2"/>
				<path d="M1773.6,1124.8c-0.2-3-0.2-6.9-8.7-2.9c-6,2.8-5.9,5.5-3.7,7.6c2.9,2.7,4.9,3.5,8.2,2
					C1772.7,1129.9,1773.7,1128.1,1773.6,1124.8z"/>
				<ellipse transform="matrix(0.9042 -0.4272 0.4272 0.9042 -309.5783 861.1409)" cx="1764.4" cy="1120.5" rx="8.9" ry="2.3"/>
			</g>
		</g>
	</g>
</g>
<g>
	<path class="st1" d="M1215.4,411.1c-1,1.1-3,0.3-3.5-1.1c-0.7-1.7,1.4-5.5-1.7-5c-0.8,0.1-1.7,0.2-2.4-0.1
		c-4.5-1.8,0.4-9.4,3.9-9.5c-1.2-0.2-2.5-0.5-3.5-1.3c-1-0.8-1.7-2-1.6-3.2c0.2-2.1,3.3-3.2,5.1-3.5c0.5-0.1,1.1-0.1,1.6-0.3
		c2.5-0.7,3-3.8,1.3-5.6c-1.2-1.2-2.9-1.9-4.1-3.2c-1.9-2-2.1-5.1-2-7.9c0.3-17.4,4.4-34.8,11.8-50.5c-1,2,13.1,15.6,14.6,17.4
		c6.3,7.4,12.5,15.1,18.4,22.8c6-4.1,15.3-7.5,22.4-9.1c19.3-4.4,37.6-0.4,55.5,7c0.6,0.3,1.3,0.5,1.9,0.8
		c3.5-8.1,6.9-16.2,10.4-24.2c1.5-3.6,2.9-7.4,4.7-10.9c1.4-2.6,2-3.2,4.5-1.1c7.2,5.9,11.4,14.9,13.7,23.8c0.4,1.5,0.7,2.9,0.9,4.4
		c1.4,7.7,1.7,15.6,2.2,23.4c0.2,3.3-0.4,9,1.1,12c1.7,3.4,5,0.3,8.5,1.7c0.4,0.1,0.8,0.3,1,0.7c0.2,0.3,0.2,0.7,0.2,1.1
		c0,0.7,0,1.4,0,2.1c0,0.4,0,0.9-0.2,1.2c-0.2,0.3-0.5,0.5-0.9,0.7c-1.1,0.6-2.1,1.3-3.2,1.9c1.7-0.2,3.5,0.5,4.6,1.8
		c1.1,1.3,1.4,3.2,0.9,4.8c-1.2,3.5-5.1,5.8-6.7,9.2"/>
	<polyline class="st2" points="1285.7,392.1 1280.2,365.8 1285.7,372 1283,349.8 1291.2,349.8 1293.9,358.2 1299.1,354.9 
		1299.1,392.1 	"/>
	<path class="st12" d="M1215.4,411.1c-1,1.1-3,0.3-3.5-1.1c-0.7-1.7,1.4-5.5-1.7-5c-0.8,0.1-1.7,0.2-2.4-0.1
		c-4.5-1.8,0.4-9.4,3.9-9.5c-1.2-0.2-2.5-0.5-3.5-1.3c-1-0.8-1.7-2-1.6-3.2c0.2-2.1,3.3-3.2,5.1-3.5c0.5-0.1,1.1-0.1,1.6-0.3
		c2.5-0.7,3-3.8,1.3-5.6c-1.2-1.2-2.9-1.9-4.1-3.2c-1.9-2-2.1-5.1-2-7.9c0.3-17.4,4.4-34.8,11.8-50.5c-1,2,13.1,15.6,14.6,17.4
		c6.3,7.4,12.5,15.1,18.4,22.8c6-4.1,15.3-7.5,22.4-9.1c19.3-4.4,37.6-0.4,55.5,7c0.6,0.3,1.3,0.5,1.9,0.8
		c3.5-8.1,6.9-16.2,10.4-24.2c1.5-3.6,2.9-7.4,4.7-10.9c1.4-2.6,2-3.2,4.5-1.1c7.2,5.9,11.4,14.9,13.7,23.8c0.4,1.5,0.7,2.9,0.9,4.4
		c1.4,7.7,1.7,15.6,2.2,23.4c0.2,3.3-0.4,9,1.1,12c1.7,3.4,5,0.3,8.5,1.7c0.4,0.1,0.8,0.3,1,0.7c0.2,0.3,0.2,0.7,0.2,1.1
		c0,0.7,0,1.4,0,2.1c0,0.4,0,0.9-0.2,1.2c-0.2,0.3-0.5,0.5-0.9,0.7c-1.1,0.6-2.1,1.3-3.2,1.9c1.7-0.2,3.5,0.5,4.6,1.8
		c1.1,1.3,1.4,3.2,0.9,4.8c-1.2,3.5-5.1,5.8-6.7,9.2"/>
	<g>
		<path class="st11" d="M1189.6,554.7c0,0-9.4-8.7-15.8-24.1c-8.6-20.7-11.6-53.5,20.9-93.7c19.2-23.7,47-37.3,76.8-42
			c30.6-4.9,63.8-4.1,92,10c13.6,6.8,24.9,16.2,35.4,27.1c16.8,17.3,31.9,40.6,33.4,65.5c0,0,2,35.3-22,57.3
			c-24.1,22-70.7,24.1-98.3,12.3l-24.6,0.5C1287.3,567.5,1246.4,591,1189.6,554.7z"/>
		<path class="st3" d="M1283.2,445.9c0,0-79.6-27-111.2,80.1l18.7-73.3l64.6-31.5l60.5-4.7l96.5,45.9l13.6,31.8l2.8,22.5
			c0,0-29.2-81.5-118.9-73.6"/>
		<path class="st4" d="M1174.1,528.2c-1.1-2,0.6-7.9,0.9-10c1.2-8.2,3.2-16.4,6.2-24.2c8.9-23.5,25.9-40.9,48.9-50.9
			c12.9-5.6,27.6-6.9,41.4-4.1c2,0.4,4.1,0.9,5.8,2c3.7,2.2,5.9,6.2,7.9,10.1c0.8-3.8,1.5-7.5,2.3-11.3c-0.7,2.6,10.6,15,12.6,17.7
			l15.2-18.8l3.5,9.7l11.8-8.6c0,0,77-5.7,98.1,76.9c0,0,18.9-60.3-59.7-108.6c-26.7-16.4-50.9-16.2-72.5-16
			c-58.2,0.4-95.7,38.4-95.7,38.4S1149.9,481.3,1174.1,528.2z"/>
		<path class="st5" d="M1189.6,554.7c0,0-9.4-8.7-15.8-24.1c-8.6-20.7-11.6-53.5,20.9-93.7c19.2-23.7,47-37.3,76.8-42
			c30.6-4.9,63.8-4.1,92,10c13.6,6.8,24.9,16.2,35.4,27.1c16.8,17.3,31.9,40.6,33.4,65.5c0,0,2,35.3-22,57.3
			c-24.1,22-70.7,24.1-98.3,12.3l-24.6,0.5C1287.3,567.5,1246.4,591,1189.6,554.7z"/>
		<polyline class="st5" points="1275.2,432.3 1285.8,450.2 1287.9,441.2 1300.1,459.4 1315,440.5 1318.6,450.2 1328.3,437.4 		"/>
		<path class="st6" d="M1272.9,554.1c0,0,21.2,25.7,56.3,2.4"/>
		<g>
			<path class="st7" d="M1217.5,546.1c-7,0.1-12.7-0.4-19,3.3c-4.4,2.5-8.1,6-11.8,9.4c-2.7,2.5-5.4,5.1-7.3,8.2
				c-3.6,6-2.4,13,1.8,18.4c7,9,18.8,12.6,29.8,12c6.5-0.4,15.1-1.1,20.7-4.6c5.8-3.6,8.5-10.7,9-17.5c0.5-6.8-0.9-13.5-1.5-20.3"/>
			<circle cx="1218.6" cy="581.1" r="6.2"/>
			<ellipse transform="matrix(0.3296 -0.9441 0.9441 0.3296 259.4696 1522.9023)" cx="1202" cy="578.8" rx="6.2" ry="5"/>
			<ellipse transform="matrix(0.7071 -0.7071 0.7071 0.7071 -55.3395 1009.3642)" cx="1190.7" cy="571.5" rx="5.8" ry="3.9"/>
			<g>
				<ellipse transform="matrix(0.4272 -0.9042 0.9042 0.4272 189.3646 1421.9984)" cx="1217" cy="561.5" rx="5.2" ry="5.8"/>
				<ellipse transform="matrix(0.4272 -0.9042 0.9042 0.4272 188.0308 1411.2374)" cx="1207.8" cy="557.2" rx="5.2" ry="5.8"/>
				<path d="M1203.6,562.2c0.2-3,0.2-6.9,8.7-2.9c6,2.8,5.9,5.5,3.7,7.6c-2.9,2.7-4.9,3.5-8.2,2
					C1204.5,567.3,1203.4,565.5,1203.6,562.2z"/>
				<ellipse transform="matrix(0.4272 -0.9042 0.9042 0.4272 190.1594 1416.1508)" cx="1212.8" cy="558" rx="2.3" ry="8.9"/>
			</g>
		</g>
		<g>
			<path class="st7" d="M1374.7,546.1c7,0.1,12.7-0.4,19,3.3c4.4,2.5,8.1,6,11.8,9.4c2.7,2.5,5.4,5.1,7.3,8.2c3.6,6,2.4,13-1.8,18.4
				c-7,9-18.8,12.6-29.8,12c-6.5-0.4-15.1-1.1-20.7-4.6c-5.8-3.6-8.5-10.7-9-17.5c-0.5-6.8,0.9-13.5,1.5-20.3"/>
			<circle cx="1373.6" cy="581.1" r="6.2"/>
			<ellipse transform="matrix(0.9441 -0.3296 0.3296 0.9441 -113.0768 490.4497)" cx="1390.1" cy="578.8" rx="5" ry="6.2"/>
			<ellipse transform="matrix(0.7071 -0.7071 0.7071 0.7071 6.3551 1158.3083)" cx="1401.4" cy="571.5" rx="3.9" ry="5.8"/>
			<g>
				<ellipse transform="matrix(0.9042 -0.4272 0.4272 0.9042 -108.0952 641.2704)" cx="1375.1" cy="561.5" rx="5.8" ry="5.2"/>
				<ellipse transform="matrix(0.9042 -0.4272 0.4272 0.9042 -105.3685 644.7686)" cx="1384.3" cy="557.2" rx="5.8" ry="5.2"/>
				<path d="M1388.5,562.2c-0.2-3-0.2-6.9-8.7-2.9c-6,2.8-5.9,5.5-3.7,7.6c2.9,2.7,4.9,3.5,8.2,2
					C1387.6,567.3,1388.7,565.5,1388.5,562.2z"/>
				<ellipse transform="matrix(0.9042 -0.4272 0.4272 0.9042 -106.174 642.7319)" cx="1379.4" cy="558" rx="8.9" ry="2.3"/>
			</g>
		</g>
	</g>
</g>
<g>
	<path class="st9" d="M425.6,973.7c-1,1.1-3,0.3-3.5-1.1c-0.7-1.7,1.4-5.5-1.7-5c-0.8,0.1-1.6,0.2-2.4-0.1c-4.5-1.8,0.4-9.4,3.9-9.5
		c-1.2-0.2-2.5-0.5-3.5-1.3c-1-0.8-1.7-2-1.6-3.2c0.2-2.1,3.3-3.2,5.1-3.5c0.5-0.1,1.1-0.1,1.6-0.3c2.5-0.7,3-3.8,1.3-5.6
		c-1.2-1.2-2.9-1.9-4.1-3.2c-1.9-2-2.1-5.1-2-7.9c0.3-17.4,4.4-34.8,11.8-50.5c-1,2,13.1,15.6,14.6,17.4
		c6.3,7.4,12.5,15.1,18.4,22.8c6-4.1,15.3-7.5,22.4-9.1c19.3-4.4,37.6-0.4,55.5,7c0.6,0.3,1.3,0.5,1.9,0.8
		c3.5-8.1,6.9-16.2,10.4-24.2c1.5-3.6,2.9-7.4,4.7-10.9c1.4-2.6,2-3.2,4.5-1.1c7.2,5.9,11.4,14.9,13.7,23.8c0.4,1.5,0.7,2.9,0.9,4.4
		c1.4,7.7,1.7,15.6,2.2,23.4c0.2,3.3-0.4,9,1.1,12c1.7,3.4,5,0.3,8.5,1.7c0.4,0.1,0.8,0.3,1,0.7c0.2,0.3,0.2,0.7,0.2,1.1
		c0,0.7,0,1.4,0,2.1c0,0.4,0,0.9-0.2,1.2c-0.2,0.3-0.5,0.5-0.9,0.7c-1.1,0.6-2.1,1.3-3.2,1.9c1.7-0.2,3.5,0.5,4.6,1.8
		c1.1,1.3,1.4,3.2,0.9,4.8c-1.2,3.5-5.1,5.8-6.7,9.2"/>
	<polyline class="st2" points="495.9,954.6 490.4,928.4 495.9,934.5 493.2,912.3 501.4,912.3 504.1,920.7 509.3,917.4 509.3,954.6 	
		"/>
	<path class="st12" d="M425.6,973.7c-1,1.1-3,0.3-3.5-1.1c-0.7-1.7,1.4-5.5-1.7-5c-0.8,0.1-1.6,0.2-2.4-0.1
		c-4.5-1.8,0.4-9.4,3.9-9.5c-1.2-0.2-2.5-0.5-3.5-1.3c-1-0.8-1.7-2-1.6-3.2c0.2-2.1,3.3-3.2,5.1-3.5c0.5-0.1,1.1-0.1,1.6-0.3
		c2.5-0.7,3-3.8,1.3-5.6c-1.2-1.2-2.9-1.9-4.1-3.2c-1.9-2-2.1-5.1-2-7.9c0.3-17.4,4.4-34.8,11.8-50.5c-1,2,13.1,15.6,14.6,17.4
		c6.3,7.4,12.5,15.1,18.4,22.8c6-4.1,15.3-7.5,22.4-9.1c19.3-4.4,37.6-0.4,55.5,7c0.6,0.3,1.3,0.5,1.9,0.8
		c3.5-8.1,6.9-16.2,10.4-24.2c1.5-3.6,2.9-7.4,4.7-10.9c1.4-2.6,2-3.2,4.5-1.1c7.2,5.9,11.4,14.9,13.7,23.8c0.4,1.5,0.7,2.9,0.9,4.4
		c1.4,7.7,1.7,15.6,2.2,23.4c0.2,3.3-0.4,9,1.1,12c1.7,3.4,5,0.3,8.5,1.7c0.4,0.1,0.8,0.3,1,0.7c0.2,0.3,0.2,0.7,0.2,1.1
		c0,0.7,0,1.4,0,2.1c0,0.4,0,0.9-0.2,1.2c-0.2,0.3-0.5,0.5-0.9,0.7c-1.1,0.6-2.1,1.3-3.2,1.9c1.7-0.2,3.5,0.5,4.6,1.8
		c1.1,1.3,1.4,3.2,0.9,4.8c-1.2,3.5-5.1,5.8-6.7,9.2"/>
	<path class="st11" d="M399.8,1117.2c0,0-9.4-8.7-15.8-24.1c-8.6-20.7-11.6-53.5,20.9-93.7c19.2-23.7,47-37.3,76.8-42
		c30.6-4.9,63.8-4.1,92,10c13.6,6.8,24.9,16.2,35.4,27.1c16.8,17.3,31.9,40.6,33.4,65.5c0,0,2,35.3-22,57.3
		c-24.1,22-70.7,24.1-98.3,12.3l-24.6,0.5C497.5,1130,456.6,1153.5,399.8,1117.2z"/>
	<path class="st3" d="M384.3,1090.8c-1.1-2,0.6-7.9,0.9-10c1.2-8.2,3.2-16.4,6.2-24.2c8.9-23.5,25.9-40.9,48.9-50.9
		c12.9-5.6,27.6-6.9,41.4-4.1c2,0.4,4.1,0.9,5.8,2c3.7,2.2,5.9,6.2,7.9,10.1c0.8-3.8,1.5-7.5,2.3-11.3c-0.7,2.6,10.6,15,12.6,17.7
		l15.2-18.8l3.5,9.7l11.8-8.6c0,0,77-5.7,98.1,76.9c0,0,18.9-60.3-59.7-108.6c-26.7-16.4-50.9-16.2-72.5-16
		c-58.2,0.4-95.7,38.4-95.7,38.4S360.1,1043.9,384.3,1090.8z"/>
	<path class="st5" d="M399.8,1117.2c0,0-9.4-8.7-15.8-24.1c-8.6-20.7-11.6-53.5,20.9-93.7c19.2-23.7,47-37.3,76.8-42
		c30.6-4.9,63.8-4.1,92,10c13.6,6.8,24.9,16.2,35.4,27.1c16.8,17.3,31.9,40.6,33.4,65.5c0,0,2,35.3-22,57.3
		c-24.1,22-70.7,24.1-98.3,12.3l-24.6,0.5C497.5,1130,456.6,1153.5,399.8,1117.2z"/>
	<polyline class="st5" points="485.4,994.8 496,1012.7 498.1,1003.8 510.4,1022 525.2,1003 528.8,1012.7 538.5,999.9 	"/>
	<path class="st6" d="M483.1,1116.6c0,0,21.2,25.7,56.3,2.4"/>
	<g>
		<path class="st7" d="M427.7,1108.6c-7,0.1-12.7-0.4-19,3.3c-4.4,2.5-8.1,6-11.8,9.4c-2.7,2.5-5.4,5.1-7.3,8.2
			c-3.6,6-2.4,13,1.8,18.4c7,9,18.8,12.6,29.8,12c6.5-0.4,15.1-1.1,20.7-4.6c5.8-3.6,8.5-10.7,9-17.5c0.5-6.8-0.9-13.5-1.5-20.3"/>
		<circle cx="428.8" cy="1143.7" r="6.2"/>
		<ellipse transform="matrix(0.3296 -0.9441 0.9441 0.3296 -801.1435 1154.3719)" cx="412.2" cy="1141.3" rx="6.2" ry="5"/>
		<ellipse transform="matrix(0.7071 -0.7071 0.7071 0.7071 -684.4335 615.6561)" cx="400.9" cy="1134" rx="5.8" ry="3.9"/>
		<g>
			<ellipse transform="matrix(0.4272 -0.9042 0.9042 0.4272 -771.6524 1030.1182)" cx="427.2" cy="1124.1" rx="5.2" ry="5.8"/>
			<ellipse transform="matrix(0.4272 -0.9042 0.9042 0.4272 -772.9862 1019.3572)" cx="418" cy="1119.7" rx="5.2" ry="5.8"/>
			<path d="M413.8,1124.8c0.2-3,0.2-6.9,8.7-2.9c6,2.8,5.9,5.5,3.7,7.6c-2.9,2.7-4.9,3.5-8.2,2
				C414.7,1129.9,413.6,1128.1,413.8,1124.8z"/>
			<ellipse transform="matrix(0.4272 -0.9042 0.9042 0.4272 -770.8577 1024.2704)" cx="423" cy="1120.5" rx="2.3" ry="8.9"/>
		</g>
	</g>
	<g>
		<path class="st7" d="M584.9,1108.6c7,0.1,12.7-0.4,19,3.3c4.4,2.5,8.1,6,11.8,9.4c2.7,2.5,5.4,5.1,7.3,8.2c3.6,6,2.4,13-1.8,18.4
			c-7,9-18.8,12.6-29.8,12c-6.5-0.4-15.1-1.1-20.7-4.6c-5.8-3.6-8.5-10.7-9-17.5c-0.5-6.8,0.9-13.5,1.5-20.3"/>
		<circle cx="583.8" cy="1143.7" r="6.2"/>
		<ellipse transform="matrix(0.9441 -0.3296 0.3296 0.9441 -342.5866 261.5905)" cx="600.3" cy="1141.3" rx="5" ry="6.2"/>
		<ellipse transform="matrix(0.7071 -0.7071 0.7071 0.7071 -622.7389 764.6002)" cx="611.6" cy="1134" rx="3.9" ry="5.8"/>
		<g>
			<ellipse transform="matrix(0.9042 -0.4272 0.4272 0.9042 -424.0974 357.7882)" cx="585.3" cy="1124.1" rx="5.8" ry="5.2"/>
			<ellipse transform="matrix(0.9042 -0.4272 0.4272 0.9042 -421.3708 361.2864)" cx="594.5" cy="1119.7" rx="5.8" ry="5.2"/>
			<path d="M598.7,1124.8c-0.2-3-0.2-6.9-8.7-2.9c-6,2.8-5.9,5.5-3.7,7.6c2.9,2.7,4.9,3.5,8.2,2
				C597.8,1129.9,598.9,1128.1,598.7,1124.8z"/>
			<ellipse transform="matrix(0.9042 -0.4272 0.4272 0.9042 -422.1762 359.2497)" cx="589.6" cy="1120.5" rx="8.9" ry="2.3"/>
		</g>
	</g>
</g>
<g>
	<g>
		<path class="st13" d="M361.1,497.5c0,0,16.8,19.3,11.5,45.2c-4.1,20.1,7.8,46.5,31.6,43.4c11.2-1.4,24-11,20.7-23.5
			c-2.5-9.4-8.4-22.1-18-18.8c13.5-14.8,23.3-24.1,33.7-40.9c6.6-10.7,18.4-30.5,7.5-41.5"/>
		<path class="st14" d="M587.1,486.6c0,0,8.2,25.9,2.7,33.5c-4.6,6.4-1.6,16.6-0.2,23.6c1.8,9.2,4.4,18.3,7.8,27
			c3.7,9.3,8.9,15.9,18.7,18.2c9,2.1,19.8,0.4,27.3-5.6c3.2-2.5,5.9-6.7,6.2-11.1c0.2-3.4-0.9-6.8-2.7-9.7
			c-3.7-6.2-11.2-12.2-18.6-10.1c-11,3.2,19.4-40.2,19.4-40.2"/>
		<path class="st15" d="M708,301.7c0,0,6,8.9-5.2,16.1c0,0-12.9,0-28.2,16.1c-6.9,7.3,6,21.9,9.4,27.2c9.4,14.6,19.3,30.8,20,48.7
			c0,1.3,0,2.7-0.6,3.9c-0.6,1.2-2,2.1-3.3,1.8c-0.9-0.2-1.5-1-2.1-1.8c-2.8-3.8-4.9-8.2-6.1-12.8c4.3,12,7.5,24.5,9.5,37.1
			c0.4,2.3,0.5,5.1-1.4,6.5c-2.4,1.7-5.6-0.5-7.3-2.9c-2.5-3.6-4.8-9.4-3.7-13.2c3.5,11.1,4.7,23.4,4.7,35c0,4-0.3,8.3-2.7,11.4
			c-0.8,1.1-2.3,2-3.5,1.3c-0.6-0.4-0.9-1.1-1.2-1.8c-1.3-3.5-2.1-7.2-2.5-11c0.8,6.8,1.5,13.8-0.7,20.3c-0.7,2.1-1.9,4.3-3.8,5.5
			s-4.7,1.2-6.2-0.5c-0.7-0.8-1.1-1.5-2.2-1.3c-6.2,37.7-76.9,35.5-102.2,34.4c0,0-104.6,3-184.1-21.8
			c-79.4-24.8-90.2-41.4-90.2-41.4s-24-71.2,29.8-101c54.7-30.3,109.2-18.9,168.2-12.6c10.8,1.2,22.3,0.5,28.1-9.9
			c4.6-8.3,5.4-24.6-5.5-28.5c-2.5-0.9-5.4-0.8-7.9-1.7c-2.6-0.9-5-3.3-4.4-5.9c0.8-3.4,5.5-3.9,9-3.4c-4.4-0.1-8.6-2.3-11.2-5.8
			c-0.5-0.7-1-1.6-0.7-2.4c0.2-0.6,0.7-1,1.2-1.3c2.4-1.5,5.2-2.2,8-1.9c-1.7-1.1-2.8-3.1-2.9-5.1c-0.2-2.6,1.2-5,2-7.4
			c2.7-8.4-5.5-25.8-7.2-34.6c-2.5-13.6-4.1-27.3-4.4-41.1c-0.6-27.5,4.8-53.5,16.1-78.5c13.8,20.1,28.4,39.7,43.9,58.5
			c8.4,10.1,22.1,31.1,36.2,33.7"/>
		<path class="st15" d="M653.1,201.8c0,0-27.4-66.1-26-95.7c0,0-29,22.5-43,87.9"/>
		<path class="st15" d="M566.4,186.2c28.2-1.3,85.2-3.1,100.5,25.2c5.1,9.5,9.5,20.2,18.6,26c9.4,6,21.6,5.2,32.7,3.6
			c2.5-0.4,5.1-0.7,7.6-0.1c10,2.4,5.6,30.1,5.6,37.8c0,0-4,24.6-31,28.6c0,0-39.9,18.1-63.3-11.7"/>
		<path class="st2" d="M607.1,190.1c0,0,123.2,61.6,11.2,94.6s-47.4,28-47.4,28s-10,6.6-10,21.2c0,14.6,13.3-11.3,13.3-11.3
			s-11.9,5.8,6.4,89.9c0,0,2.9,5.8,6.5-6.4c0,0-6.8,30.1,1.4,38.3c0,0,2.1-0.6,4.6-4.9c2.4-4.3,5.7,59.8-9.9,75.4
			c-15.6,15.6-99.7-58.7-183.8-42.7s-84.1,16-84.1,16l61,10.2L516,522.2c0,0,126.8,1.3,131.7-10l11.1-5.7l8.8-8.8l3.1-10.3l6.8,3
			l5.9-3.6l0.2-23.4l3.7,12.8l6.1-4.9v-13.4l-4.6-29.4l3.5,11.5l3.3,4.8l4.2-0.1l2-9.1l-8.5-29.8l6.7,9.9l3.3-1.8V400l-17.3-35
			l-12.5-21.4c0,0-1.1-7.4-1.1-7.4c-0.1-1,4.7-4.7,5.5-5.4c1.9-1.7,4-3.2,6.2-4.6c4.7-3.1,9.8-5.6,15-7.6c1.8-0.7,3.6-1.3,5.2-2.3
			c4-2.6,4.5-7.3,6.2-11.9l9.5-4.2c0,0,20.8-11.4,8.3-57.8l-12.9-0.4h-11l-18.8-4.7l-8-5.3l-4-9.2l-7.7-13.6l-8.8-8.1l-24.3-10.7
			l-24.3-4.6h-9.6"/>
		<path class="st16" d="M709.3,305c4.1,5.4-3.3,11.4-7.9,12.8c-5,1.5-9.6,2.7-14,5.5c-4.8,3-9,6.6-12.9,10.7
			c-6.9,7.3,6,21.9,9.4,27.2c9.4,14.6,19.3,30.8,20,48.7c0,1.3,0,2.7-0.6,3.9c-0.6,1.2-2,2.1-3.3,1.8c-0.9-0.2-1.5-1-2.1-1.8
			c-2.8-3.8-4.9-8.2-6.1-12.8c4.3,12,7.5,24.5,9.5,37.1c0.4,2.3,0.5,5.1-1.4,6.5c-2.4,1.7-5.6-0.5-7.3-2.9
			c-2.5-3.6-4.8-9.4-3.7-13.2c3.5,11.1,4.7,23.4,4.7,35c0,4-0.3,8.3-2.7,11.4c-0.8,1.1-2.3,2-3.5,1.3c-0.6-0.4-0.9-1.1-1.2-1.8
			c-1.3-3.5-2.1-7.2-2.5-11c0.8,6.8,1.5,13.8-0.7,20.3c-0.7,2.1-1.9,4.3-3.8,5.5s-4.7,1.2-6.2-0.5c-0.7-0.8-1.1-1.5-2.2-1.3
			c-6.2,37.7-76.9,35.5-102.2,34.4c0,0-104.6,3-184.1-21.8c-79.4-24.8-90.2-41.4-90.2-41.4s-24-71.2,29.8-101
			c54.7-30.3,109.2-18.9,168.2-12.6c10.8,1.2,22.3,0.5,28.1-9.9c4.6-8.3,5.4-24.6-5.5-28.5c-2.5-0.9-5.4-0.8-7.9-1.7
			c-2.6-0.9-5-3.3-4.4-5.9c0.8-3.4,5.5-3.9,9-3.4c-4.4-0.1-8.6-2.3-11.2-5.8c-0.5-0.7-1-1.6-0.7-2.4c0.2-0.6,0.7-1,1.2-1.3
			c2.4-1.5,5.2-2.2,8-1.9c-1.7-1.1-2.8-3.1-2.9-5.1c-0.2-2.6,1.2-5,2-7.4c2.7-8.4-5.5-25.8-7.2-34.6c-2.5-13.6-4.1-27.3-4.4-41.1
			c-0.6-27.5,4.8-53.5,16.1-78.5c13.8,20.1,28.4,39.7,43.9,58.5c8.4,10.1,22.1,31.1,36.2,33.7"/>
		<circle cx="645.3" cy="243.5" r="6.9"/>
		<path class="st17" d="M701.6,307.3c3.7,2.8,6.5,6.4,9.4,10c2.3,2.8,4.6,5.7,6.7,8.6c1.9,2.6,3.7,5.3,6.4,7.2
			c2.2,1.5,4.9,2.4,7.5,2.1c1.4-0.1,2.7-0.6,3.8-1.4c2-1.6,2.9-4.3,2.9-6.9c-0.1-5.2-2.6-10.5-6-14.4c-4.1-4.8-9.5-8.6-14.3-12.6"/>
		<path class="st15" d="M336.3,356.6c0,0-65-25.2-52.8-122.7c0,0-18.7,10-19.5,11.9c-0.8,1.9,8.1-49.3,36.2-81.8
			c0,0-58.1-13-101.1,26c0,0-21.1,16.2-19.5,62.6l-6.5-10.6c0,0-10.6,92.6,128.4,142.2"/>
		<path class="st18" d="M175.7,269.3c0,0,10.9,13.1,29.2,21.3l12.2-47l26,65.7c0,0,5.6-47.3,20.9-63.4l3.3-15.1
			c0,0,17.6-60.1,32.8-66.7c0,0-113.2-14.8-120.3,72.6l-0.4,16l-3.8-6.1C175.7,246.5,169.4,261.5,175.7,269.3z"/>
		<path class="st16" d="M336.3,356.6c0,0-65-25.2-52.8-122.7c0,0-18.7,10-19.5,11.9c-0.8,1.9,8.1-49.3,36.2-81.8
			c0,0-58.1-13-101.1,26c0,0-21.1,16.2-19.5,62.6l-6.5-10.6c0,0-10.6,92.6,128.4,142.2"/>
		<path class="st15" d="M294.3,458.5c0,0,14.5,32.7-1.6,66c-6,12.3-6.8,27.9-4.2,41.2c3.4,17.9,15.9,29.6,34.4,30
			c5.8,0.1,11.8-0.7,16.9-3.5c20-10.7,13.7-47.5-10.7-46.1c22.6-14.9,45.3-30.8,64.7-49.8c12.3-12,34.5-34.4,24.6-53.7"/>
		<path class="st16" d="M564.6,186.3c28.2-1.3,87.1-3.1,102.4,25.1c5.1,9.5,9.5,20.2,18.6,26c9.4,6,21.6,5.2,32.7,3.6
			c2.5-0.4,5.1-0.7,7.6-0.1c10,2.4,5.6,30.1,5.6,37.8c0,6.1-4.8,12.8-8.7,17.1c-4.3,4.7-10,8.3-16.2,10.1c-5.2,1.5-10.4,3-15.6,4.5
			c-19.3,5.6-41.1,1.5-53.8-14.7"/>
		<path class="st18" d="M300.1,496.3c0,0,6.7,63.5,75.5,16.3l-45.4,33.5l9.9,2.4l9.8,11.9c0,0,10,38.2-29.9,35.3
			c-39.8-3-32.9-49.7-32.9-49.7"/>
		<path class="st16" d="M294.3,458.5c0,0,14.5,32.7-1.6,66c-6,12.3-6.8,27.9-4.2,41.2c3.4,17.9,15.9,29.6,34.4,30
			c5.8,0.1,11.8-0.7,16.9-3.5c20-10.7,13.7-47.5-10.7-46.1c22.6-14.9,45.3-30.8,64.7-49.8c12.3-12,34.5-34.4,24.6-53.7"/>
		<path class="st15" d="M512.7,484.1c0,0,12.1,28.8,6.3,38c-4.8,7.7-0.3,19.1,1.9,27c3,10.4,6.9,20.5,11.8,30.2
			c5.2,10.3,12,17.3,23.8,19.1c10.9,1.6,23.5-1.3,31.7-8.9c3.5-3.2,6.4-8.2,6.3-13.3c0-3.9-1.7-7.7-4-10.9
			c-4.9-6.7-14.3-13-22.9-9.9c-12.7,4.6,19.2-47.7,19.2-47.7"/>
		<path class="st2" d="M520.4,517.6c0,0,11.1,45.2,48,23.9l-3.8,10.9l0.9,3.3l8.6-0.9l12.9,4.7c0,0,28,35-25,39.3l-13.8-2.8
			l-17.5-20.6l-13.8-34v-17.6"/>
		<path class="st16" d="M512.7,484.1c0,0,12.1,28.8,6.3,38c-4.8,7.7-0.3,19.1,1.9,27c3,10.4,6.9,20.5,11.8,30.2
			c5.2,10.3,12,17.3,23.8,19.1c10.9,1.6,23.5-1.3,31.7-8.9c3.5-3.2,6.4-8.2,6.3-13.3c0-3.9-1.7-7.7-4-10.9
			c-4.9-6.7-14.3-13-22.9-9.9c-12.7,4.6,19.2-47.7,19.2-47.7"/>
	</g>
	<path d="M715.5,242.1c0,0-5.1,22,16.8,13.9l-5.5-14.7l-7.4-0.3"/>
</g>
<g>
	<g>
		<path class="st19" d="M-1159.1,432.3c0,0,20.4,23.4,14,54.9c-5,24.4,9.5,56.5,38.3,52.7c13.6-1.8,29.1-13.3,25.1-28.6
			c-3-11.4-10.2-26.8-21.9-22.9c16.4-17.9,28.3-29.2,41-49.7c8.1-13,22.4-37.1,9.1-50.4"/>
		<path class="st19" d="M-884.5,419c0,0,9.9,31.4,3.2,40.7c-5.6,7.8-1.9,20.1-0.3,28.7c2.2,11.2,5.3,22.3,9.5,32.9
			c4.5,11.3,10.8,19.3,22.7,22.1c11,2.6,24.1,0.5,33.1-6.8c3.8-3.1,7.2-8.1,7.6-13.5c0.3-4.2-1.1-8.3-3.2-11.8
			c-4.5-7.5-13.6-14.9-22.6-12.3c-13.3,3.8,23.6-48.8,23.6-48.8"/>
		<path class="st20" d="M-737.6,194.3c0,0,7.3,10.8-6.4,19.6c0,0-15.7,0-34.3,19.6c-8.4,8.9,7.3,26.6,11.4,33
			c11.4,17.8,23.5,37.4,24.2,59.1c0.1,1.6,0,3.3-0.7,4.8s-2.4,2.6-4,2.1c-1.1-0.3-1.9-1.2-2.5-2.1c-3.5-4.6-6-9.9-7.5-15.5
			c5.2,14.6,9.1,29.7,11.5,45.1c0.4,2.8,0.6,6.2-1.8,7.9c-2.9,2-6.8-0.6-8.9-3.6c-3.1-4.4-5.9-11.4-4.5-16.1
			c4.3,13.5,5.7,28.4,5.7,42.5c0,4.8-0.3,10-3.3,13.8c-1,1.3-2.8,2.4-4.2,1.6c-0.8-0.4-1.1-1.3-1.4-2.2c-1.6-4.3-2.6-8.8-3-13.4
			c0.9,8.2,1.8,16.8-0.9,24.6c-0.9,2.6-2.3,5.2-4.6,6.7s-5.8,1.5-7.6-0.6c-0.9-1-1.3-1.8-2.6-1.5c-7.5,45.8-93.4,43.2-124.1,41.8
			c0,0-127.1,3.7-223.6-26.5c-96.5-30.2-109.6-50.3-109.6-50.3s-29.2-86.5,36.2-122.6c66.4-36.8,132.6-23,204.3-15.2
			c13.2,1.4,27.1,0.6,34.1-12c5.6-10.1,6.5-29.9-6.6-34.7c-3.1-1.1-6.5-1-9.6-2s-6.1-4-5.4-7.2c0.9-4.2,6.7-4.7,10.9-4.1
			c-5.3-0.1-10.5-2.8-13.6-7.1c-0.6-0.9-1.2-2-0.9-3c0.2-0.7,0.9-1.2,1.5-1.6c2.9-1.9,6.4-2.7,9.8-2.3c-2-1.4-3.4-3.7-3.5-6.2
			c-0.2-3.1,1.5-6.1,2.4-9c3.3-10.2-6.7-31.3-8.7-42.1c-3-16.5-5-33.2-5.4-50c-0.7-33.4,5.8-65,19.6-95.4
			c16.7,24.4,34.4,48.2,53.3,71c10.2,12.3,26.9,37.8,44,41"/>
		<path class="st20" d="M-804.3,73.1c0,0-33.3-80.3-31.6-116.2c0,0-35.2,27.3-52.2,106.8"/>
		<path class="st20" d="M-909.6,54.1c34.2-1.6,103.5-3.7,122.1,30.6c6.2,11.5,11.6,24.5,22.6,31.6c11.5,7.3,26.2,6.3,39.7,4.4
			c3.1-0.4,6.2-0.9,9.2-0.2c12.1,3,6.7,36.6,6.7,45.9c0,0-4.9,29.9-37.7,34.8c0,0-48.5,22-76.9-14.2"/>
		<path class="st2" d="M-860.2,58.8c0,0,149.7,74.8,13.6,115s-57.5,34.1-57.5,34.1s-12.2,8-12.2,25.8s16.1-13.7,16.1-13.7
			s-14.4,7,7.8,109.3c0,0,3.5,7,7.9-7.8c0,0-8.2,36.5,1.7,46.5c0,0,2.6-0.7,5.5-5.9c3-5.2,6.9,72.7-12,91.6s-121.1-71.3-223.2-51.9
			c-102.1,19.5-102.1,19.5-102.1,19.5l74,12.4l169.7,28.6c0,0,154,1.6,160-12.1l13.4-7l10.7-10.7l3.8-12.6l8.3,3.6l7.2-4.4l0.2-28.4
			l4.4,15.5l7.4-6v-16.2l-5.6-35.7l4.3,13.9l4,5.8l5.1-0.1l2.5-11.1l-10.3-36.2l8.1,12l4-2.1v-16.6l-21-42.5l-15.2-25.9
			c0,0-1.3-8.9-1.3-8.9c-0.2-1.2,5.7-5.7,6.6-6.6c2.3-2.1,4.9-3.9,7.5-5.6c5.7-3.7,11.9-6.8,18.3-9.3c2.1-0.8,4.3-1.6,6.3-2.8
			c4.8-3.1,5.5-8.8,7.6-14.5l11.6-5.1c0,0,25.3-13.8,10.1-70.2l-15.7-0.4H-742l-22.9-5.7l-9.8-6.4l-4.9-11.2l-9.4-16.5l-10.7-9.8
			l-29.5-13l-29.5-5.5h-11.6"/>
		<path class="st21" d="M-736,198.3c4.9,6.6-4.1,13.8-9.6,15.5c-6,1.8-11.7,3.3-17,6.7c-5.8,3.6-10.9,8.1-15.6,13
			c-8.4,8.9,7.3,26.6,11.4,33c11.4,17.8,23.5,37.4,24.2,59.1c0.1,1.6,0,3.3-0.7,4.8s-2.4,2.6-4,2.1c-1.1-0.3-1.9-1.2-2.5-2.1
			c-3.5-4.6-6-9.9-7.5-15.5c5.2,14.6,9.1,29.7,11.5,45.1c0.4,2.8,0.6,6.2-1.8,7.9c-2.9,2-6.8-0.6-8.9-3.6
			c-3.1-4.4-5.9-11.4-4.5-16.1c4.3,13.5,5.7,28.4,5.7,42.5c0,4.8-0.3,10-3.3,13.8c-1,1.3-2.8,2.4-4.2,1.6c-0.8-0.4-1.1-1.3-1.4-2.2
			c-1.6-4.3-2.6-8.8-3-13.4c0.9,8.2,1.8,16.8-0.9,24.6c-0.9,2.6-2.3,5.2-4.6,6.7s-5.8,1.5-7.6-0.6c-0.9-1-1.3-1.8-2.6-1.5
			c-7.5,45.8-93.4,43.2-124.1,41.8c0,0-127.1,3.7-223.6-26.5c-96.5-30.2-109.6-50.3-109.6-50.3s-29.2-86.5,36.2-122.6
			c66.4-36.8,132.6-23,204.3-15.2c13.2,1.4,27.1,0.6,34.1-12c5.6-10.1,6.5-29.9-6.6-34.7c-3.1-1.1-6.5-1-9.6-2s-6.1-4-5.4-7.2
			c0.9-4.2,6.7-4.7,10.9-4.1c-5.3-0.1-10.5-2.8-13.6-7.1c-0.6-0.9-1.2-2-0.9-3c0.2-0.7,0.9-1.2,1.5-1.6c2.9-1.9,6.4-2.7,9.8-2.3
			c-2-1.4-3.4-3.7-3.5-6.2c-0.2-3.1,1.5-6.1,2.4-9c3.3-10.2-6.7-31.3-8.7-42.1c-3-16.5-5-33.2-5.4-50c-0.7-33.4,5.8-65,19.6-95.4
			c16.7,24.4,34.4,48.2,53.3,71c10.2,12.3,26.9,37.8,44,41"/>
		<circle cx="-813.8" cy="123.7" r="8.3"/>
		<path class="st22" d="M-745.4,201.2c4.5,3.4,7.9,7.8,11.4,12.2c2.8,3.4,5.6,6.9,8.1,10.5c2.3,3.2,4.5,6.4,7.8,8.7
			c2.7,1.8,5.9,2.9,9.1,2.6c1.7-0.2,3.3-0.7,4.7-1.8c2.5-1.9,3.6-5.2,3.5-8.4c-0.1-6.3-3.2-12.8-7.3-17.5
			c-5-5.8-11.5-10.4-17.4-15.3"/>
		<path class="st20" d="M-1189.2,261.1c0,0-78.9-30.6-64.1-149c0,0-22.7,12.2-23.7,14.5s9.9-59.9,43.9-99.3
			c0,0-70.6-15.8-122.9,31.6c0,0-25.7,19.7-23.7,76l-7.9-12.8c0,0-12.8,112.5,155.9,172.7"/>
		<path class="st2" d="M-1384.2,155c0,0,13.2,15.9,35.4,25.8l14.8-57.1l31.5,79.8c0,0,6.8-57.4,25.4-77l4-18.4c0,0,21.4-73,39.9-81
			c0,0-137.5-17.9-146.1,88.1l-0.5,19.4l-4.6-7.4C-1384.2,127.3-1391.8,145.5-1384.2,155z"/>
		<path class="st21" d="M-1189.2,261.1c0,0-78.9-30.6-64.1-149c0,0-22.7,12.2-23.7,14.5s9.9-59.9,43.9-99.3
			c0,0-70.6-15.8-122.9,31.6c0,0-25.7,19.7-23.7,76l-7.9-12.8c0,0-12.8,112.5,155.9,172.7"/>
		<path class="st20" d="M-1240.2,384.9c0,0,17.7,39.8-2,80.2c-7.3,14.9-8.2,33.9-5.1,50c4.2,21.8,19.3,35.9,41.8,36.5
			c7.1,0.2,14.3-0.9,20.6-4.2c24.3-13,16.7-57.7-13-56c27.5-18.1,55-37.5,78.6-60.5c15-14.6,41.9-41.8,29.8-65.2"/>
		<path class="st21" d="M-911.9,54.2c34.2-1.6,105.8-3.8,124.4,30.5c6.2,11.5,11.6,24.5,22.6,31.6c11.5,7.3,26.2,6.3,39.7,4.4
			c3.1-0.4,6.2-0.9,9.2-0.2c12.1,3,6.7,36.6,6.7,45.9c0,7.4-5.8,15.5-10.6,20.7c-5.3,5.7-12.1,10-19.6,12.2
			c-6.3,1.8-12.6,3.7-18.9,5.5c-23.4,6.8-49.9,1.9-65.4-17.9"/>
		<path class="st23" d="M-1233.1,430.8c0,0,8.1,77.2,91.7,19.8l-55.2,40.7l12.1,2.9l11.9,14.5c0,0,12.1,46.5-36.3,42.9
			c-48.4-3.6-40-60.3-40-60.3"/>
		<path class="st21" d="M-1240.2,384.9c0,0,17.7,39.8-2,80.2c-7.3,14.9-8.2,33.9-5.1,50c4.2,21.8,19.3,35.9,41.8,36.5
			c7.1,0.2,14.3-0.9,20.6-4.2c24.3-13,16.7-57.7-13-56c27.5-18.1,55-37.5,78.6-60.5c15-14.6,41.9-41.8,29.8-65.2"/>
		<path class="st20" d="M-974.9,416c0,0,14.6,35,7.6,46.2c-5.9,9.4-0.4,23.2,2.4,32.8c3.6,12.6,8.4,25,14.3,36.7
			c6.3,12.6,14.6,21.1,28.9,23.2c13.2,2,28.5-1.6,38.5-10.8c4.2-3.9,7.7-9.9,7.7-16.2c-0.1-4.8-2.1-9.4-4.9-13.2
			c-6-8.1-17.4-15.8-27.8-12c-15.4,5.6,23.3-57.9,23.3-57.9"/>
		<path class="st2" d="M-965.5,456.7c0,0,13.5,54.9,58.3,29l-4.6,13.3l1.1,4l10.5-1.1l15.7,5.8c0,0,34,42.5-30.4,47.7l-16.8-3.4
			l-21.2-25l-16.7-41.3v-21.4"/>
		<path class="st21" d="M-974.9,416c0,0,14.6,35,7.6,46.2c-5.9,9.4-0.4,23.2,2.4,32.8c3.6,12.6,8.4,25,14.3,36.7
			c6.3,12.6,14.6,21.1,28.9,23.2c13.2,2,28.5-1.6,38.5-10.8c4.2-3.9,7.7-9.9,7.7-16.2c-0.1-4.8-2.1-9.4-4.9-13.2
			c-6-8.1-17.4-15.8-27.8-12c-15.4,5.6,23.3-57.9,23.3-57.9"/>
	</g>
	<path d="M-728.6,122c0,0-6.2,26.7,20.4,16.9l-6.7-17.9l-9-0.4"/>
</g>
</svg>
