<?xml version="1.0" encoding="utf-8"?>
<!-- Generator: Adobe Illustrator 21.0.0, SVG Export Plug-In . SVG Version: 6.00 Build 0)  -->
<svg version="1.1" id="Layer_1" xmlns="http://www.w3.org/2000/svg" xmlns:xlink="http://www.w3.org/1999/xlink" x="0px" y="0px"
	 viewBox="0 0 1662 547.8" style="enable-background:new 0 0 1662 547.8;" xml:space="preserve">
<style type="text/css">
	.st0{opacity:0.75;fill:#D3912F;enable-background:new    ;}
	.st1{fill:#FFFFFF;stroke:#000000;stroke-width:5.5163;stroke-linecap:round;stroke-linejoin:round;stroke-miterlimit:10;}
	.st2{fill:#FFFFFF;stroke:#000000;stroke-width:4.7334;stroke-linecap:round;stroke-linejoin:round;stroke-miterlimit:10;}
	.st3{fill:#D3912F;stroke:#000000;stroke-width:5.5163;stroke-linecap:round;stroke-linejoin:round;stroke-miterlimit:10;}
	.st4{fill:#FFFFFF;}
	.st5{fill:none;stroke:#000000;stroke-width:5.5163;stroke-linecap:round;stroke-linejoin:round;stroke-miterlimit:10;}
	.st6{fill:#F9B3A4;stroke:#000000;stroke-width:5.5163;stroke-linecap:round;stroke-linejoin:round;stroke-miterlimit:10;}
	.st7{fill:#FFFFFF;stroke:#FFFFFF;stroke-width:0.788;stroke-linecap:round;stroke-linejoin:round;stroke-miterlimit:10;}
	.st8{fill:#D3912F;stroke:#000000;stroke-width:4.9104;stroke-linecap:round;stroke-linejoin:round;stroke-miterlimit:10;}
	.st9{fill:none;stroke:#000000;stroke-width:4.9104;stroke-linecap:round;stroke-linejoin:round;stroke-miterlimit:10;}
</style>
<path class="st0" d="M1352.3,224.6v204.7c0,84.2-49.7,118.6-108.3,118.6c-55.3,0-88.5-37-101.1-67.2l43.6-18.1
	c7.8,18.6,26.8,40.5,57.4,40.5c37.6,0,60.9-23.2,60.9-66.8v-16.4h-1.7c-11.2,13.8-32.8,25.9-60,25.9c-57,0-109.2-49.7-109.2-113.5
	c0-64.4,52.2-114.4,109.2-114.4c27.2,0,48.8,12.1,60,25.5h1.7v-18.6L1352.3,224.6L1352.3,224.6z M1308.3,332.1
	c0-40.1-26.8-69.5-60.9-69.5c-34.5,0-63.5,29.3-63.5,69.5c0,39.7,28.9,68.7,63.5,68.7C1281.5,400.8,1308.3,371.8,1308.3,332.1z"/>
<path class="st0" d="M1430.7,104.6v334.1h-48.8V104.6H1430.7z"/>
<path class="st0" d="M1620.9,369.2l38.9,25.9c-12.5,18.6-42.8,50.5-95,50.5c-64.8,0-113.1-50.1-113.1-114c0-67.8,48.8-114,107.5-114
	c59.2,0,88.1,47.1,97.6,72.5l5.2,13l-152.4,63.1c11.7,22.9,29.8,34.5,55.3,34.5C1590.3,400.8,1608,388.2,1620.9,369.2L1620.9,369.2z
	 M1501.3,328.2l101.9-42.3c-5.6-14.2-22.5-24.2-42.3-24.2C1535.5,261.7,1500,284.2,1501.3,328.2z"/>
<path class="st0" d="M515.6,302v-48.4h163c1.6,8.4,2.4,18.4,2.4,29.2c0,36.3-9.9,81.2-41.9,113.1c-31.1,32.4-70.8,49.7-123.5,49.7
	c-97.6,0-179.6-79.5-179.6-177s82-177,179.6-177c54,0,92.4,21.2,121.3,48.8l-34.1,34.1C582.1,155.1,554,140,515.6,140
	c-71.2,0-127,57.4-127,128.7s55.7,128.7,127,128.7c46.2,0,72.5-18.6,89.4-35.4c13.7-13.7,22.7-33.2,26.2-59.9L515.6,302z"/>
<path class="st1" d="M75.3,377.4c0,0,16.1,18.5,11,43.3c-4,19.2,7.5,44.5,30.2,41.6c10.7-1.4,22.9-10.5,19.8-22.5
	c-2.4-9-8.1-21.1-17.2-18c13-14.1,22.3-23,32.3-39.2c6.4-10.2,17.7-29.2,7.2-39.8"/>
<path class="st2" d="M291.7,366.9c0,0,7.8,24.8,2.6,32.1c-4.4,6.1-1.5,15.9-0.2,22.6c1.7,8.9,4.2,17.5,7.5,25.9
	c3.5,8.9,8.5,15.2,17.9,17.4c8.6,2,19,0.4,26.1-5.4c3-2.4,5.7-6.4,6-10.7c0.2-3.3-0.9-6.5-2.5-9.3c-3.5-5.9-10.7-11.7-17.8-9.7
	c-10.5,3,18.6-38.5,18.6-38.5"/>
<path class="st3" d="M407.4,189.9c0,0,5.8,8.5-5,15.4c0,0-12.3,0-27,15.4c-6.6,7,5.7,21,9,26c9,14,18.5,29.5,19.1,46.6
	c0,1.3,0,2.6-0.5,3.8s-1.9,2-3.1,1.7c-0.9-0.2-1.5-1-2-1.7c-2.7-3.6-4.7-7.8-5.9-12.2c4.1,11.5,7.2,23.4,9,35.5
	c0.3,2.2,0.5,4.9-1.4,6.2c-2.3,1.6-5.4-0.5-7-2.8c-2.4-3.5-4.6-9-3.6-12.7c3.4,10.7,4.5,22.4,4.5,33.5c0,3.8-0.3,7.9-2.6,10.9
	c-0.8,1-2.2,1.9-3.3,1.3c-0.6-0.4-0.9-1-1.1-1.7c-1.2-3.4-2-6.9-2.4-10.5c0.7,6.5,1.4,13.2-0.7,19.4c-0.7,2.1-1.8,4.1-3.6,5.3
	c-1.8,1.2-4.5,1.2-6-0.5c-0.7-0.8-1.1-1.4-2.1-1.2c-5.9,36.1-73.6,34-97.8,33c0,0-100.1,2.9-176.2-20.8
	c-76.1-23.8-86.3-39.6-86.3-39.6s-23-68.1,28.5-96.6c18.6-10.3,38.3-20.2,59.9-21.1c13.3-0.5,26.6,1.3,39.7,2.9
	c26.4,3.3,60.5,20.4,80.1,2.2c11.5-10.7,5.7-18.1,2.9-32.8c-0.5-2.5-5.1-0.8-7.6-1.6s-4.8-3.1-4.2-5.7c0.7-3.3,5.3-3.7,8.6-3.2
	c-4.2-0.1-8.3-2.2-10.7-5.6c-0.5-0.7-0.9-1.5-0.7-2.3c0.2-0.6,0.7-1,1.2-1.3c2.3-1.5,5-2.1,7.7-1.8c-1.6-1.1-2.6-2.9-2.8-4.9
	c-0.1-2.5,1.1-4.8,1.9-7.1c2.6-8.1-5.3-24.7-6.9-33.2c-2.4-13-3.9-26.2-4.2-39.4c-0.6-26.3,4.6-51.2,15.4-75.2
	c13.2,19.2,27.1,38,42,56c8,9.7,21.2,29.8,34.7,32.3"/>
<path class="st3" d="M354.8,94.3c0,0-26.3-63.3-24.9-91.6c0,0-27.7,21.5-41.1,84.2"/>
<path class="st3" d="M271.9,79.4c27-1.3,81.6-2.9,96.2,24.1c4.9,9.1,9.1,19.3,17.8,24.9c9,5.8,20.7,5,31.3,3.5
	c2.4-0.3,4.9-0.7,7.2-0.1c9.6,2.3,5.3,28.8,5.3,36.1c0,0-3.9,23.5-29.7,27.4c0,0-38.2,17.4-60.6-11.2"/>
<path class="st4" d="M310.9,83.1c0,0,117.9,58.9,10.7,90.6s-45.3,26.8-45.3,26.8s-9.6,6.3-9.6,20.3s12.7-10.8,12.7-10.8
	s-11.3,5.5,6.1,86.1c0,0,2.8,5.5,6.2-6.1c0,0-6.5,28.8,1.4,36.7c0,0,2-0.6,4.4-4.7s5.5,57.3-9.5,72.2
	c-14.9,14.9-95.4-56.2-175.9-40.9s-80.5,15.3-80.5,15.3l58.3,9.8L223.6,401c0,0,121.4,1.3,126.1-9.6l10.6-5.5l8.5-8.5l3-9.9l6.5,2.8
	l5.6-3.5l0.2-22.4l3.5,12.2l5.8-4.7v-12.8L389,311l3.4,11l3.2,4.6l4-0.1l1.9-8.7l-8.1-28.5l6.4,9.5l3.1-1.7V284l-16.6-33.5l-12-20.4
	l-1.1-7c-0.1-0.9,4.5-4.5,5.2-5.2c1.8-1.7,3.9-3.1,5.9-4.4c4.5-2.9,9.4-5.4,14.4-7.3c1.7-0.7,3.4-1.3,5-2.2c3.8-2.5,4.3-6.9,6-11.4
	l9.1-4c0,0,19.9-10.9,8-55.3l-12.3-0.4H404l-18-4.5l-7.7-5l-3.9-8.8l-7.4-13l-8.5-7.8l-23.3-10.2L312,79.2h-9.2"/>
<circle cx="347.4" cy="134.2" r="6.6"/>
<path d="M414.6,132.9c0,0-4.9,21,16.1,13.3l-5.3-14.1l-7.1-0.3"/>
<path class="st5" d="M407.9,193.3c0,0,5.3,5.1-5.5,12.1c0,0-12.3,0-27,15.4c-6.6,7,5.7,21,9,26c9,14,18.5,29.5,19.1,46.6
	c0,1.3,0,2.6-0.5,3.8s-1.9,2-3.1,1.7c-0.9-0.2-1.5-1-2-1.7c-2.7-3.6-4.7-7.8-5.9-12.2c4.1,11.5,7.2,23.4,9,35.5
	c0.3,2.2,0.5,4.9-1.4,6.2c-2.3,1.6-5.4-0.5-7-2.8c-2.4-3.5-4.6-9-3.6-12.7c3.4,10.7,4.5,22.4,4.5,33.5c0,3.8-0.3,7.9-2.6,10.9
	c-0.8,1-2.2,1.9-3.3,1.3c-0.6-0.4-0.9-1-1.1-1.7c-1.2-3.4-2-6.9-2.4-10.5c0.7,6.5,1.4,13.2-0.7,19.4c-0.7,2.1-1.8,4.1-3.6,5.3
	c-1.8,1.2-4.5,1.2-6-0.5c-0.7-0.8-1.1-1.4-2.1-1.2c-5.9,36.1-73.6,34-97.8,33c0,0-100.1,2.9-176.2-20.8
	c-76.1-23.8-86.3-39.6-86.3-39.6s-23-68.1,28.5-96.6c18.6-10.3,38.3-20.2,59.9-21.1c13.3-0.5,26.6,1.3,39.7,2.9
	c26.4,3.3,58.6,18.2,80.1,2.2c8.9-6.7,5.4-26.9,2.9-32.8c-1-2.4-5.1-0.8-7.6-1.6s-4.8-3.1-4.2-5.7c0.7-3.3,5.3-3.7,8.6-3.2
	c-4.2-0.1-8.3-2.2-10.7-5.6c-0.5-0.7-0.9-1.5-0.7-2.3c0.2-0.6,0.7-1,1.2-1.3c2.3-1.5,5-2.1,7.7-1.8c-1.6-1.1-2.6-2.9-2.8-4.9
	c-0.1-2.5,1.1-4.8,1.9-7.1c2.6-8.1-5.3-24.7-6.9-33.2c-2.4-13-3.9-26.2-4.2-39.4c-0.6-26.3,4.6-51.2,15.4-75.2
	c13.2,19.2,27.1,38,42,56c8,9.7,21.2,29.8,34.7,32.3"/>
<path class="st6" d="M401.3,195.3c3.6,2.7,6.2,6.2,9,9.6c2.2,2.7,4.4,5.4,6.4,8.3c1.8,2.5,3.5,5.1,6.1,6.8c2.1,1.4,4.7,2.3,7.2,2
	c1.3-0.1,2.6-0.6,3.7-1.4c2-1.5,2.8-4.1,2.8-6.6c-0.1-5-2.5-10.1-5.7-13.8c-4-4.6-9.1-8.2-13.7-12.1"/>
<path class="st5" d="M270.1,79.4c27-1.3,83.4-3,98,24.1c4.9,9.1,9.1,19.3,17.8,24.9c9,5.8,20.7,5,31.3,3.5c2.4-0.3,4.9-0.7,7.2-0.1
	c9.6,2.3,5.3,28.8,5.3,36.1c0,5.8-4.6,12.2-8.3,16.3c-4.2,4.5-9.6,7.9-15.5,9.6c-5,1.4-10,2.9-14.9,4.3
	c-18.4,5.4-39.3,1.5-51.5-14.1"/>
<path class="st3" d="M11.4,340.1c0,0,13.9,31.3-1.6,63.2c-5.7,11.8-6.5,26.7-4,39.4C9.1,459.8,21,471,38.7,471.4
	c5.6,0.1,11.3-0.7,16.2-3.3c19.2-10.2,13.1-45.5-10.3-44.2c21.6-14.3,43.3-29.5,62-47.6c11.8-11.5,33.1-33,23.5-51.4"/>
<path class="st7" d="M17,376.2c0,0,6.4,60.8,72.3,15.6l-43.5,32.1l9.5,2.3l9.4,11.4c0,0,9.5,36.6-28.6,33.8S4.5,423.9,4.5,423.9"/>
<path class="st5" d="M11.4,340.1c0,0,13.9,31.3-1.6,63.2c-5.7,11.8-6.5,26.7-4,39.4C9.1,459.8,21,471,38.7,471.4
	c5.6,0.1,11.3-0.7,16.2-3.3c19.2-10.2,13.1-45.5-10.3-44.2c21.6-14.3,43.3-29.5,62-47.6c11.8-11.5,33.1-33,23.5-51.4"/>
<path class="st3" d="M220.5,364.6c0,0,11.5,27.6,6,36.4c-4.6,7.4-0.3,18.3,1.9,25.9c2.8,10,6.6,19.7,11.3,28.9
	c5,9.9,11.5,16.6,22.7,18.3c10.4,1.5,22.5-1.3,30.3-8.5c3.3-3.1,6.1-7.8,6-12.7c0-3.8-1.6-7.4-3.9-10.4c-4.7-6.4-13.7-12.4-21.9-9.4
	c-12.1,4.4,18.3-45.7,18.3-45.7"/>
<path class="st4" d="M227.8,396.6c0,0,10.6,43.2,46,22.9l-3.6,10.5l0.9,3.1l8.2-0.8l12.4,4.5c0,0,26.8,33.5-23.9,37.6l-13.2-2.7
	L237.8,452l-13.2-32.5v-16.9"/>
<path class="st5" d="M220.5,364.6c0,0,11.5,27.6,6,36.4c-4.6,7.4-0.3,18.3,1.9,25.9c2.8,10,6.6,19.7,11.3,28.9
	c5,9.9,11.5,16.6,22.7,18.3c10.4,1.5,22.5-1.3,30.3-8.5c3.3-3.1,6.1-7.8,6-12.7c0-3.8-1.6-7.4-3.9-10.4c-4.7-6.4-13.7-12.4-21.9-9.4
	c-12.1,4.4,18.3-45.7,18.3-45.7"/>
<path class="st8" d="M62.7,230.9c0,0-12.9-8.6-16.3-18.8s-5.6,12.6-5.6,12.6s-9.9-11.6-9.5-19.9c0.1-3.1-3-0.8-6.5,3.6
	c-6,7.5-6.7,16.1-8,25.3c0,0-9.3-0.5-12.7-1.9S1,250,18.3,262.5"/>
<path class="st4" d="M19.1,220.8c0,0,9.7,23.5,20.7,25l-20.7,16.8L5.9,248.1l-3.4-13.8l14.4-0.6l-0.9-9.6"/>
<path class="st9" d="M62.7,230.9c0,0-12.9-8.6-16.3-18.8s-5.6,12.6-5.6,12.6s-9.9-11.6-9.5-19.9c0.1-3.1-3-0.8-6.5,3.6
	c-6,7.5-6.7,16.1-8,25.3c0,0-9.3-0.5-12.7-1.9S1,250,18.3,262.5"/>
</svg>
